<?xml version="1.0" encoding="iso-8859-1"?>
<!-- Generator: Adobe Illustrator 18.0.0, SVG Export Plug-In . SVG Version: 6.00 Build 0)  -->
<!DOCTYPE svg PUBLIC "-//W3C//DTD SVG 1.1//EN" "http://www.w3.org/Graphics/SVG/1.1/DTD/svg11.dtd">
<svg version="1.1" xmlns="http://www.w3.org/2000/svg" xmlns:xlink="http://www.w3.org/1999/xlink" x="0px" y="0px" width="2800px"
	 height="2800px" viewBox="0 0 2800 2800" enable-background="new 0 0 2800 2800" xml:space="preserve">
<g id="BACKGROUND">
	<g>
		<linearGradient id="SVGID_1_" gradientUnits="userSpaceOnUse" x1="1400" y1="2800" x2="1400" y2="-6.285427e-08">
			<stop  offset="0" style="stop-color:#FFFFFF"/>
			<stop  offset="0.32" style="stop-color:#FFFFFF"/>
			<stop  offset="0.3693" style="stop-color:#C6EEFF"/>
			<stop  offset="0.435" style="stop-color:#80D9FF"/>
			<stop  offset="0.4944" style="stop-color:#49C9FF"/>
			<stop  offset="0.5451" style="stop-color:#21BDFF"/>
			<stop  offset="0.5853" style="stop-color:#09B6FF"/>
			<stop  offset="0.6099" style="stop-color:#00B3FF"/>
			<stop  offset="0.6973" style="stop-color:#00ACFF"/>
			<stop  offset="0.8254" style="stop-color:#0098FF"/>
			<stop  offset="0.9778" style="stop-color:#0078FF"/>
			<stop  offset="1" style="stop-color:#0073FF"/>
		</linearGradient>
		<rect fill="url(#SVGID_1_)" width="2800" height="2800"/>
	</g>
</g>
<g id="OBJECTS">
	<g>
		<path opacity="0.5" fill="#FFFFFF" d="M2645.3,1818.3c-6.4-3-13.6-4.7-21.1-4.7s-14.7,1.7-21.1,4.7c-5.1-10.9-16.2-18.5-29-18.5
			c-1.2,0-2.4,0.1-3.6,0.2c-6.1-19.2-19.3-35.3-36.6-45c5.3-15.1,8.2-31.4,8.2-48.4c0-80.5-65.3-145.8-145.8-145.8
			c-7.3,0-14.4,0.5-21.4,1.6c-1.7-25.1-12.8-47.7-29.9-64.1c1.7-8.9,2.6-18.2,2.6-27.6c0-80.5-65.3-145.8-145.8-145.8
			c-4.5,0-9,0.2-13.5,0.6c-32.4-91.8-120-157.6-222.9-157.6c-102.7,0-190.1,65.5-222.7,157c-1.5,0-3-0.1-4.5-0.1
			c-80.5,0-145.8,65.3-145.8,145.8c-52,0-94.5,40.3-98.2,91.3c-5.2-1.1-10.6-1.6-16.1-1.6c-23.8,0-45.2,10.4-59.9,26.9
			c-14.9-32.6-47.8-55.3-86-55.3c-12.2,0-23.8,2.3-34.5,6.5c-16.5-24.2-44.2-40.1-75.7-40.1c-50,0-90.6,40.1-91.5,89.8
			c-59.2,14.3-103.7,66.2-106.7,128.9c-12.9-6.7-27.5-10.5-43-10.5c-18.2,0-35.1,5.2-49.5,14.2c0,0,0,0,0,0
			c0-51.5-41.7-93.2-93.2-93.2c-44.9,0-82.3,31.7-91.2,74c-11.6-3.3-23.9-5-36.5-5c-54.5,0-101.5,32.3-122.9,78.7
			c-12-9.2-27-14.6-43.2-14.6c-22.6,0-42.8,10.6-55.8,27.1c-7.6-4.5-16.5-7.1-26-7.1c-20.4,0-38,11.9-46.2,29.2
			c-8.3-3.4-17.4-5.3-27-5.3c-7.8,0-15.3,1.3-22.3,3.6c-9-19.6-28.7-33.2-51.7-33.2c-24.4,0-45.2,15.4-53.2,37c-9.9-5.1-21.1-8-33-8
			c-11.7,0-22.7,2.8-32.5,7.8c-6.1-8-15.6-13.1-26.4-13.1c-18.3,0-33.2,14.9-33.2,33.2h35.4h31h55.1h27.3h47.6h38.8h39.2h33.8h28
			h40.5h61.5h40.3h230.2h47.6h175.1h6h178h1068.9h95.8h53.7h71.1h31.6h12h20.5h36.2h20.5C2658,1826,2652.1,1821.4,2645.3,1818.3z"/>
		<path fill="#FFFFFF" d="M2099.5,1301.9c0-22.7-5.6-44-15.6-62.7c-22.5-42.4-67.1-71.3-118.5-71.3c-102.7,0-190.1,65.5-222.7,157
			c-1.5,0-3-0.1-4.5-0.1c-80.5,0-145.8,65.3-145.8,145.8c-52,0-94.5,40.3-98.2,91.3c-5.2-1.1-10.6-1.6-16.1-1.6
			c-23.7,0-45.1,10.3-59.8,26.7v0.2c5.4,11.9,8.5,25.2,8.5,39.1c0,11.7-2.1,22.9-6.1,33.3c10.9,26.1,36.7,44.4,66.8,44.4
			c33.7,0,62-23,70.1-54.1c6.8,6.6,16.1,10.7,26.3,10.7c16.2,0,30-10.2,35.4-24.5c22.2,15.4,49.2,24.5,78.4,24.5
			c68.5,0,125.3-50,135.9-115.5c9.8,3.8,20.4,5.9,31.5,5.9c34.4,0,64.2-20.1,78.2-49.2c31,12,67.6,5.5,92.6-19.5
			c22.7-22.7,30.2-55,22.4-83.9C2083.8,1374,2099.5,1339.8,2099.5,1301.9z"/>
		<path fill="#FFFFFF" d="M1313.7,1589.8c0-19.1-5.8-36.8-15.8-51.5v0c-16.5-24.2-44.2-40.1-75.7-40.1c-50,0-90.6,40.1-91.5,89.8
			c-59.2,14.3-103.7,66.2-106.7,128.9c-12.9-6.7-27.5-10.5-43-10.5c-18.2,0-35.1,5.2-49.5,14.2c0,0,0,0,0,0
			c0-51.5-41.7-93.2-93.2-93.2c-44.9,0-82.3,31.7-91.2,74c-11.6-3.3-23.9-5-36.5-5c-54.5,0-101.5,32.3-122.9,78.7
			c-12-9.2-27-14.6-43.2-14.6c-22.6,0-42.8,10.6-55.8,27.1c-7.6-4.5-16.5-7.1-26-7.1c-20.4,0-38,11.9-46.2,29.2
			c-8.3-3.4-17.4-5.3-27-5.3c-7.8,0-15.3,1.3-22.3,3.6c-9-19.6-28.7-33.2-51.7-33.2c-24.4,0-45.2,15.4-53.2,37c-9.9-5.1-21.1-8-33-8
			c-11.7,0-22.7,2.8-32.5,7.8c-6.1-8-15.6-13.1-26.4-13.1c-18.3,0-33.2,14.9-33.2,33.2h35.4h31h55.1h27.3h47.6h38.8h39.2h33.8h28
			h40.5h61.5h40.3h230.2h4.5c8.6-7.5,15.3-17,19.6-27.7c7.9,2.9,16.4,4.5,25.3,4.5c12,0,23.2-2.9,33.2-8.1
			c7.3,5.1,16.2,8.1,25.8,8.1c19,0,35.3-11.8,42-28.4c8.2,11.9,21.8,19.7,37.4,19.7c19.2,0,35.6-12,42.2-28.9
			c24.6-5.2,44.6-22.9,53-46.1c8,7,18.4,11.3,29.9,11.3c11.9,0,22.7-4.6,30.8-12.1c11.3,7.4,24.8,11.7,39.4,11.7
			c24.4,0,46-12.2,59.1-30.7c4.3-6,7.6-12.8,9.9-20c2.1-6.8,3.3-14,3.3-21.5c0-7.6-1.2-15-3.4-21.9
			C1307.8,1626.8,1313.7,1609,1313.7,1589.8z"/>
	</g>
	<g>
		<path opacity="0.5" fill="#FFFFFF" d="M975.2,1223.1c-6.2,0-11.6,2.9-15.1,7.5c-5.6-2.8-11.9-4.5-18.6-4.5
			c-6.8,0-13.2,1.7-18.8,4.6c-4-10.7-13.4-18.7-24.9-20.6c-7-11.4-17.6-20.2-30.3-25c0.9-4,1.5-8.3,1.5-12.6
			c0-30.3-24.5-54.8-54.8-54.8c-7.7,0-15,1.6-21.7,4.5c-3.7-2.9-8.2-4.9-13.2-5.7c-0.8-5-2.2-9.7-4.2-14.1
			c-8.5-18.6-27.3-31.6-49.1-31.6c-7,0-13.6,1.3-19.7,3.7c-9.4-13.8-25.3-22.9-43.2-22.9c-28.6,0-51.7,22.9-52.3,51.3
			c-33.8,8.1-59.2,37.8-61,73.7c-7.3-3.8-15.7-6-24.6-6c-10.4,0-20.1,3-28.3,8.1c0,0,0,0,0,0c0-29.4-23.8-53.2-53.2-53.2
			c-25.6,0-47,18.1-52.1,42.3c-6.6-1.9-13.6-2.9-20.9-2.9c-31.1,0-58,18.4-70.2,45c-6.8-5.2-15.4-8.4-24.7-8.4
			c-12.9,0-24.5,6.1-31.9,15.5c-4.4-2.6-9.4-4.1-14.9-4.1c-11.7,0-21.7,6.8-26.4,16.7c-1.8,3.8-2.8,8-2.8,12.5h19.3h16h23.1h35.2h23
			H448h27.2h100h3.4h67.7h34.1H785h37.5H882h24.9h2.3h15.6h31.5H974h20.2C994.2,1231.6,985.7,1223.1,975.2,1223.1z"/>
		<g>
			<path fill="#FFFFFF" d="M219.2,1242.1h16h23.1h35.2h23H448h2.6c4.9-4.3,8.8-9.7,11.2-15.9c4.5,1.7,9.4,2.6,14.4,2.6
				c6.8,0,13.3-1.7,19-4.6c4.2,2.9,9.3,4.6,14.7,4.6c10.9,0,20.2-6.7,24-16.2c4.7,6.8,12.5,11.2,21.3,11.2c11,0,20.4-6.8,24.1-16.5
				c14-3,25.5-13.1,30.3-26.3c4.6,4,10.5,6.5,17.1,6.5c6.8,0,13-2.6,17.6-6.9c6.5,4.2,14.2,6.7,22.5,6.7c14,0,26.3-6.9,33.8-17.6
				c2.4-3.5,4.4-7.3,5.6-11.4c1.2-3.9,1.9-8,1.9-12.3c0-4.4-0.7-8.6-1.9-12.5c5.8-8.4,9.2-18.6,9.2-29.5c0-10.9-3.3-21-9.1-29.4l0,0
				c-9.4-13.8-25.3-22.9-43.2-22.9c-28.6,0-51.7,22.9-52.3,51.3c-33.8,8.1-59.2,37.8-61,73.7c-7.3-3.8-15.7-6-24.6-6
				c-10.4,0-20.1,3-28.3,8.1c0,0,0,0,0,0c0-29.4-23.8-53.2-53.2-53.2c-25.6,0-47,18.1-52.1,42.3c-6.6-1.9-13.6-2.9-20.9-2.9
				c-31.1,0-58,18.4-70.2,45c-6.8-5.2-15.4-8.4-24.7-8.4c-12.9,0-24.5,6.1-31.9,15.5c-4.4-2.6-9.4-4.1-14.9-4.1
				c-11.7,0-21.7,6.8-26.4,16.7c-1.8,3.8-2.8,8-2.8,12.5l0,0H219.2z"/>
		</g>
	</g>
	<g>
		<path opacity="0.5" fill="#FFFFFF" d="M2613.4,721.7c-16,0-30.3,7.6-39.3,19.5c-14.5-7.4-30.9-11.6-48.3-11.6
			c-17.7,0-34.3,4.3-49,11.9c-10.3-27.7-34.8-48.6-64.7-53.7c-18.2-29.5-45.9-52.6-78.8-65.1c2.5-10.5,3.8-21.5,3.8-32.7
			c0-78.7-63.8-142.6-142.6-142.6c-20,0-39.1,4.1-56.4,11.6c-9.7-7.6-21.4-12.9-34.2-14.8c-2-12.9-5.7-25.2-11-36.7
			c-22.1-48.5-71-82.2-127.7-82.2c-18.1,0-35.4,3.5-51.2,9.7c-24.5-35.9-65.7-59.5-112.5-59.5c-74.3,0-134.6,59.5-135.9,133.5
			c-87.9,21.2-154,98.3-158.6,191.6c-19.1-10-40.8-15.6-63.9-15.6c-27,0-52.2,7.8-73.5,21.2c0,0,0,0,0-0.1
			c0-76.5-62-138.5-138.5-138.5c-66.7,0-122.3,47.1-135.5,109.9c-17.3-4.8-35.5-7.4-54.3-7.4c-81,0-150.8,47.9-182.6,117
			c-17.8-13.6-40-21.8-64.2-21.8c-33.6,0-63.6,15.7-82.9,40.2c-11.3-6.7-24.5-10.6-38.6-10.6c-30.3,0-56.5,17.8-68.7,43.4
			c-4.7,9.9-7.3,20.9-7.3,32.6h50.3h41.6h60.1h91.4h59.8h342h70.8h260.1h8.9h176h88.6h271.9h97.6h154.7h64.8h5.9h40.6h81.9h46h52.6
			C2662.7,743.8,2640.7,721.7,2613.4,721.7z"/>
		<g>
			<path fill="#FFFFFF" d="M647.3,771.1h41.6h60.1h91.4h59.8h342h6.7c12.7-11.1,22.8-25.2,29.2-41.2c11.7,4.4,24.3,6.7,37.5,6.7
				c17.8,0,34.5-4.3,49.3-12c10.9,7.5,24.1,12,38.3,12c28.3,0,52.5-17.5,62.5-42.2c12.1,17.7,32.5,29.2,55.5,29.2
				c28.5,0,52.9-17.8,62.7-42.9c36.5-7.7,66.2-34,78.7-68.5c11.9,10.4,27.4,16.8,44.4,16.8c17.7,0,33.8-6.8,45.8-18
				c16.8,11,36.9,17.4,58.5,17.4c36.3,0,68.4-18.1,87.8-45.7c6.3-9,11.3-19,14.7-29.7c3.2-10.1,4.9-20.9,4.9-32
				c0-11.4-1.8-22.3-5-32.6c15-21.9,23.8-48.3,23.8-76.8c0-28.4-8.7-54.7-23.5-76.5h0c-24.5-35.9-65.7-59.5-112.5-59.5
				c-74.3,0-134.6,59.5-135.9,133.5c-87.9,21.2-154,98.3-158.6,191.6c-19.1-10-40.8-15.6-63.9-15.6c-27,0-52.2,7.8-73.5,21.2
				c0,0,0,0,0-0.1c0-76.5-62-138.5-138.5-138.5c-66.7,0-122.3,47.1-135.5,109.9c-17.3-4.8-35.5-7.4-54.3-7.4
				c-81,0-150.8,47.9-182.6,117c-17.8-13.6-40-21.8-64.2-21.8c-33.6,0-63.6,15.7-82.9,40.2c-11.3-6.7-24.5-10.6-38.6-10.6
				c-30.3,0-56.5,17.8-68.7,43.4c-4.7,9.9-7.3,20.9-7.3,32.6l0,0H647.3z"/>
		</g>
	</g>
	<g>
		<g>
			<linearGradient id="SVGID_2_" gradientUnits="userSpaceOnUse" x1="1400" y1="2800" x2="1400" y2="1867.322">
				<stop  offset="0" style="stop-color:#0073FF"/>
				<stop  offset="0.2331" style="stop-color:#0086FF"/>
				<stop  offset="0.7032" style="stop-color:#00B7FF"/>
				<stop  offset="1" style="stop-color:#00D9FF"/>
			</linearGradient>
			<rect y="1867.3" fill="url(#SVGID_2_)" width="2800" height="932.7"/>
		</g>
		<g opacity="0.1">
			<g>
				<g>
					<path fill="#FFFFFF" d="M1404.4,2074c-414.8,0-820,4.3-1211.8,12.3c391.8,8.1,797,12.3,1211.8,12.3s820-4.3,1211.8-12.3
						C2224.4,2078.2,1819.2,2074,1404.4,2074z"/>
				</g>
				<g>
					<path fill="#FFFFFF" d="M684.8,2119.8c232.7,5.5,473.2,8.3,719.5,8.3s486.9-2.9,719.5-8.3c-232.7-5.5-473.2-8.3-719.5-8.3
						S917.5,2114.3,684.8,2119.8z"/>
				</g>
				<g>
					<path fill="#FFFFFF" d="M1023.4,2621.6c379.3,8.1,771.5,12.3,1173,12.3c203.8,0,405.1-1.1,603.6-3.2v-18.2
						c-198.5-2.1-399.8-3.2-603.6-3.2C1794.9,2609.3,1402.7,2613.5,1023.4,2621.6z"/>
				</g>
				<g>
					<path fill="#FFFFFF" d="M1499.9,2679.8c225.2,5.5,458.1,8.3,696.5,8.3c205.8,0,407.4-2.1,603.6-6.2v-4.2
						c-196.2-4.1-397.8-6.2-603.6-6.2C1958,2671.4,1725.1,2674.3,1499.9,2679.8z"/>
				</g>
				<g>
					<path fill="#FFFFFF" d="M1310.3,2762.1c-379.3-8.1-771.5-12.3-1173-12.3c-45.9,0-91.6,0.1-137.3,0.2v24.4
						c45.6,0.1,91.4,0.2,137.3,0.2C538.8,2774.5,931,2770.2,1310.3,2762.1z"/>
				</g>
				<g>
					<path fill="#FFFFFF" d="M197.7,2488.3c512.8,8.1,1043,12.3,1585.9,12.3c344.3,0,683.5-1.7,1016.4-5v-14.6
						c-332.9-3.3-672.1-5-1016.4-5C1240.7,2475.9,710.5,2480.2,197.7,2488.3z"/>
				</g>
				<g>
					<path fill="#FFFFFF" d="M1243.6,2551.5c-304.5-7.8-619.3-11.8-941.6-11.8c-101.4,0-202.1,0.4-301.9,1.2v21.3
						c99.8,0.8,200.5,1.2,301.9,1.2C624.2,2563.3,939.1,2559.2,1243.6,2551.5z"/>
				</g>
				<g>
					<path fill="#FFFFFF" d="M1310.3,1905.2c-379.3-8.1-771.5-12.3-1173-12.3c-45.9,0-91.6,0.1-137.3,0.2v24.4
						c45.6,0.1,91.4,0.2,137.3,0.2C538.8,1917.5,931,1913.3,1310.3,1905.2z"/>
				</g>
				<g>
					<path fill="#FFFFFF" d="M833.8,1938.7c-225.2-5.5-458.1-8.3-696.5-8.3c-46,0-91.7,0.1-137.3,0.3v16
						c45.5,0.2,91.3,0.3,137.3,0.3C375.7,1947,608.6,1944.1,833.8,1938.7z"/>
				</g>
				<g>
					<path fill="#FFFFFF" d="M2800,1968.4v-18.2c-260.2,2.1-516.7,5.1-769,9.1C2283.3,1963.3,2539.8,1966.4,2800,1968.4z"/>
				</g>
				<g>
					<path fill="#FFFFFF" d="M1193.5,1992.8c304.5,5.5,619.3,8.3,941.6,8.3c225.6,0,447.5-1.4,664.8-4.1v-8.4
						c-217.3-2.7-439.2-4.1-664.8-4.1C1812.8,1984.5,1498,1987.3,1193.5,1992.8z"/>
				</g>
				<g>
					<path fill="#FFFFFF" d="M2286.2,2314.6c-430.3-8.1-875.2-12.3-1330.7-12.3c-324.3,0-643.3,2.2-955.5,6.3v12
						c312.2,4.2,631.2,6.3,955.5,6.3C1411,2327,1855.9,2322.7,2286.2,2314.6z"/>
				</g>
				<g>
					<path fill="#FFFFFF" d="M1312.6,2380.7c255.5,5.5,519.7,8.3,790.1,8.3c237.8,0,470.8-2.2,697.2-6.5v-3.7
						c-226.5-4.2-459.4-6.5-697.2-6.5C1832.3,2372.4,1568.1,2375.2,1312.6,2380.7z"/>
				</g>
				<g>
					<path fill="#FFFFFF" d="M751.1,2216.2c-223.4-7.8-454.5-11.9-691-11.9c-20.1,0-40.1,0-60.1,0.1v23.5c20,0.1,40,0.1,60.1,0.1
						C296.6,2228.1,527.6,2224,751.1,2216.2z"/>
				</g>
				<g>
					<path fill="#FFFFFF" d="M2057.7,2216.2c223.4,7.8,454.5,11.9,691,11.9c17.1,0,34.2,0,51.3-0.1v-23.6c-17.1,0-34.2-0.1-51.3-0.1
						C2512.2,2204.4,2281.1,2208.5,2057.7,2216.2z"/>
				</g>
			</g>
		</g>
		<g opacity="0.1">
			<g>
				<g>
					<path d="M1404.4,2593.4c-414.8,0-820-4.3-1211.8-12.3c391.8-8.1,797-12.3,1211.8-12.3s820,4.3,1211.8,12.3
						C2224.4,2589.1,1819.2,2593.4,1404.4,2593.4z"/>
				</g>
				<g>
					<path d="M684.8,2547.6c232.7-5.5,473.2-8.3,719.5-8.3s486.9,2.9,719.5,8.3c-232.7,5.5-473.2,8.3-719.5,8.3
						S917.5,2553,684.8,2547.6z"/>
				</g>
				<g>
					<path d="M613,2045.7c466.9-8.1,949.7-12.3,1444-12.3c250.8,0,498.7,1.1,743,3.2v18.2c-244.3,2.1-492.2,3.2-743,3.2
						C1562.7,2058.1,1079.9,2053.8,613,2045.7z"/>
				</g>
				<g>
					<path d="M1499.9,1987.6c225.2-5.5,458.1-8.3,696.5-8.3c205.8,0,407.4,2.1,603.6,6.2v4.2c-196.2,4.1-397.8,6.2-603.6,6.2
						C1958,1995.9,1725.1,1993,1499.9,1987.6z"/>
				</g>
				<g>
					<path d="M1310.3,1905.2c-379.3,8.1-771.5,12.3-1173,12.3c-45.9,0-91.6-0.1-137.3-0.2l0-24.4c45.6-0.1,91.4-0.2,137.3-0.2
						C538.8,1892.8,931,1897.1,1310.3,1905.2z"/>
				</g>
				<g>
					<path d="M197.7,2179.1c512.8-8.1,1043-12.3,1585.9-12.3c344.3,0,683.5,1.7,1016.4,5v14.6c-332.9,3.3-672.1,5-1016.4,5
						C1240.7,2191.4,710.5,2187.1,197.7,2179.1z"/>
				</g>
				<g>
					<path d="M1243.6,2115.8c-304.5,7.8-619.3,11.8-941.6,11.8c-101.4,0-202.1-0.4-301.9-1.2l0-21.3c99.8-0.8,200.5-1.2,301.9-1.2
						C624.2,2104,939.1,2108.1,1243.6,2115.8z"/>
				</g>
				<g>
					<path d="M1310.3,2762.1c-379.3,8.1-771.5,12.3-1173,12.3c-45.9,0-91.6-0.1-137.3-0.2l0-24.4c45.6-0.1,91.4-0.2,137.3-0.2
						C538.8,2749.8,931,2754,1310.3,2762.1z"/>
				</g>
				<g>
					<path d="M833.8,2728.7c-225.2,5.5-458.1,8.3-696.5,8.3c-46,0-91.7-0.1-137.3-0.3l0-16c45.5-0.2,91.3-0.3,137.3-0.3
						C375.7,2720.3,608.6,2723.2,833.8,2728.7z"/>
				</g>
				<g>
					<path d="M2800,2698.9v18.2c-260.2-2.1-516.7-5.1-769-9.1C2283.3,2704,2539.8,2701,2800,2698.9z"/>
				</g>
				<g>
					<path d="M1193.5,2674.5c304.5-5.5,619.3-8.3,941.6-8.3c225.6,0,447.5,1.4,664.8,4.1v8.4c-217.3,2.7-439.2,4.1-664.8,4.1
						C1812.8,2682.9,1498,2680,1193.5,2674.5z"/>
				</g>
				<g>
					<path d="M1312.6,2352.7c-247,8.1-502.5,12.3-764,12.3c-186.2,0-369.4-2.2-548.6-6.3l0-12c179.2-4.2,362.4-6.3,548.6-6.3
						C810.1,2340.4,1065.6,2344.6,1312.6,2352.7z"/>
				</g>
				<g>
					<path d="M1312.6,2286.6c255.5-5.5,519.7-8.3,790.1-8.3c237.8,0,470.8,2.2,697.2,6.5v3.7c-226.5,4.2-459.4,6.5-697.2,6.5
						C1832.3,2295,1568.1,2292.1,1312.6,2286.6z"/>
				</g>
				<g>
					<path d="M751.1,2451.1c-223.4,7.8-454.5,11.9-691,11.9c-20.1,0-40.1,0-60.1-0.1l0-23.5c20-0.1,40-0.1,60.1-0.1
						C296.6,2439.2,527.6,2443.3,751.1,2451.1z"/>
				</g>
				<g>
					<path d="M1534.8,2451.1c380.8-7.8,774.6-11.9,1177.8-11.9c29.2,0,58.3,0,87.4,0.1v23.6c-29.1,0-58.2,0.1-87.4,0.1
						C2309.5,2462.9,1915.7,2458.9,1534.8,2451.1z"/>
				</g>
			</g>
		</g>
	</g>
</g>
</svg>
