<svg xmlns="http://www.w3.org/2000/svg" version="1.1" xmlns:xlink="http://www.w3.org/1999/xlink" xmlns:svgjs="http://svgjs.com/svgjs" width="1440" height="560" preserveAspectRatio="none" viewBox="0 0 1440 560"><g mask="url(&quot;#SvgjsMask1003&quot;)" fill="none"><path d="M1182 324L1181 634" stroke-width="10" stroke="url(#SvgjsLinearGradient1004)" stroke-linecap="round" class="Down"></path><path d="M453 347L452 122" stroke-width="6" stroke="url(#SvgjsLinearGradient1004)" stroke-linecap="round" class="Down"></path><path d="M175 188L174 342" stroke-width="8" stroke="url(#SvgjsLinearGradient1005)" stroke-linecap="round" class="Up"></path><path d="M1041 171L1040 354" stroke-width="8" stroke="url(#SvgjsLinearGradient1005)" stroke-linecap="round" class="Up"></path><path d="M479 12L478 388" stroke-width="6" stroke="url(#SvgjsLinearGradient1005)" stroke-linecap="round" class="Up"></path><path d="M1121 370L1120 4" stroke-width="10" stroke="url(#SvgjsLinearGradient1005)" stroke-linecap="round" class="Up"></path><path d="M1031 423L1030 841" stroke-width="8" stroke="url(#SvgjsLinearGradient1004)" stroke-linecap="round" class="Down"></path><path d="M438 76L437 -235" stroke-width="6" stroke="url(#SvgjsLinearGradient1004)" stroke-linecap="round" class="Down"></path><path d="M559 82L558 495" stroke-width="6" stroke="url(#SvgjsLinearGradient1004)" stroke-linecap="round" class="Down"></path><path d="M258 448L257 775" stroke-width="6" stroke="url(#SvgjsLinearGradient1005)" stroke-linecap="round" class="Up"></path><path d="M1084 362L1083 718" stroke-width="8" stroke="url(#SvgjsLinearGradient1004)" stroke-linecap="round" class="Down"></path><path d="M1247 435L1246 209" stroke-width="10" stroke="url(#SvgjsLinearGradient1005)" stroke-linecap="round" class="Up"></path><path d="M1412 477L1411 187" stroke-width="6" stroke="url(#SvgjsLinearGradient1005)" stroke-linecap="round" class="Up"></path><path d="M901 501L900 354" stroke-width="8" stroke="url(#SvgjsLinearGradient1005)" stroke-linecap="round" class="Up"></path><path d="M842 537L841 302" stroke-width="6" stroke="url(#SvgjsLinearGradient1005)" stroke-linecap="round" class="Up"></path><path d="M933 399L932 781" stroke-width="8" stroke="url(#SvgjsLinearGradient1005)" stroke-linecap="round" class="Up"></path><path d="M129 31L128 -259" stroke-width="8" stroke="url(#SvgjsLinearGradient1005)" stroke-linecap="round" class="Up"></path><path d="M492 250L491 -10" stroke-width="6" stroke="url(#SvgjsLinearGradient1004)" stroke-linecap="round" class="Down"></path><path d="M310 509L309 704" stroke-width="6" stroke="url(#SvgjsLinearGradient1004)" stroke-linecap="round" class="Down"></path><path d="M123 547L122 913" stroke-width="10" stroke="url(#SvgjsLinearGradient1005)" stroke-linecap="round" class="Up"></path><path d="M1422 100L1421 475" stroke-width="10" stroke="url(#SvgjsLinearGradient1005)" stroke-linecap="round" class="Up"></path><path d="M771 559L770 702" stroke-width="6" stroke="url(#SvgjsLinearGradient1004)" stroke-linecap="round" class="Down"></path><path d="M636 256L635 -161" stroke-width="10" stroke="url(#SvgjsLinearGradient1005)" stroke-linecap="round" class="Up"></path><path d="M894 190L893 -82" stroke-width="6" stroke="url(#SvgjsLinearGradient1005)" stroke-linecap="round" class="Up"></path><path d="M1331 496L1330 807" stroke-width="10" stroke="url(#SvgjsLinearGradient1004)" stroke-linecap="round" class="Down"></path><path d="M668 67L667 -88" stroke-width="10" stroke="url(#SvgjsLinearGradient1005)" stroke-linecap="round" class="Up"></path><path d="M1026 331L1025 48" stroke-width="6" stroke="url(#SvgjsLinearGradient1004)" stroke-linecap="round" class="Down"></path><path d="M131 505L130 766" stroke-width="6" stroke="url(#SvgjsLinearGradient1004)" stroke-linecap="round" class="Down"></path><path d="M1420 106L1419 263" stroke-width="10" stroke="url(#SvgjsLinearGradient1005)" stroke-linecap="round" class="Up"></path><path d="M1386 391L1385 749" stroke-width="8" stroke="url(#SvgjsLinearGradient1005)" stroke-linecap="round" class="Up"></path><path d="M647 325L646 658" stroke-width="6" stroke="url(#SvgjsLinearGradient1005)" stroke-linecap="round" class="Up"></path><path d="M979 300L978 115" stroke-width="6" stroke="url(#SvgjsLinearGradient1004)" stroke-linecap="round" class="Down"></path><path d="M892 497L891 751" stroke-width="10" stroke="url(#SvgjsLinearGradient1005)" stroke-linecap="round" class="Up"></path><path d="M1089 139L1088 -226" stroke-width="10" stroke="url(#SvgjsLinearGradient1004)" stroke-linecap="round" class="Down"></path><path d="M1127 518L1126 208" stroke-width="10" stroke="url(#SvgjsLinearGradient1005)" stroke-linecap="round" class="Up"></path><path d="M567 434L566 772" stroke-width="8" stroke="url(#SvgjsLinearGradient1005)" stroke-linecap="round" class="Up"></path></g><defs><mask id="SvgjsMask1003"><rect width="1440" height="560" fill="#ffffff"></rect></mask><linearGradient x1="0%" y1="0%" x2="0%" y2="100%" id="SvgjsLinearGradient1004"><stop stop-color="rgba(28, 83, 142, 0)" offset="0"></stop><stop stop-color="#1c538e" offset="1"></stop></linearGradient><linearGradient x1="0%" y1="100%" x2="0%" y2="0%" id="SvgjsLinearGradient1005"><stop stop-color="rgba(28, 83, 142, 0)" offset="0"></stop><stop stop-color="#1c538e" offset="1"></stop></linearGradient></defs></svg>