<svg xmlns="http://www.w3.org/2000/svg" version="1.1" xmlns:xlink="http://www.w3.org/1999/xlink" xmlns:svgjs="http://svgjs.com/svgjs" width="1440" height="250" preserveAspectRatio="none" viewBox="0 0 1440 250"><g mask="url(&quot;#SvgjsMask1003&quot;)" fill="none"><path d="M27 250L277 0L631 0L381 250z" fill="url(#SvgjsLinearGradient1004)"></path><path d="M284.6 250L534.6 0L593.1 0L343.1 250z" fill="url(#SvgjsLinearGradient1004)"></path><path d="M519.2 250L769.2 0L878.7 0L628.7 250z" fill="url(#SvgjsLinearGradient1004)"></path><path d="M713.8000000000001 250L963.8000000000001 0L1158.8000000000002 0L908.8000000000001 250z" fill="url(#SvgjsLinearGradient1004)"></path><path d="M1428 250L1178 0L978.5 0L1228.5 250z" fill="url(#SvgjsLinearGradient1005)"></path><path d="M1191.4 250L941.4000000000001 0L782.4000000000001 0L1032.4 250z" fill="url(#SvgjsLinearGradient1005)"></path><path d="M943.8 250L693.8 0L570.8 0L820.8 250z" fill="url(#SvgjsLinearGradient1005)"></path><path d="M711.1999999999999 250L461.19999999999993 0L350.19999999999993 0L600.1999999999999 250z" fill="url(#SvgjsLinearGradient1005)"></path><path d="M1271.842598455187 250L1440 81.84259845518707L1440 250z" fill="url(#SvgjsLinearGradient1004)"></path><path d="M0 250L168.15740154481293 250L 0 81.84259845518707z" fill="url(#SvgjsLinearGradient1005)"></path></g><defs><mask id="SvgjsMask1003"><rect width="1440" height="250" fill="#ffffff"></rect></mask><linearGradient x1="0%" y1="100%" x2="100%" y2="0%" id="SvgjsLinearGradient1004"><stop stop-color="rgba(15, 70, 185, 0.2)" offset="0"></stop><stop stop-opacity="0" stop-color="rgba(15, 70, 185, 0.2)" offset="0.66"></stop></linearGradient><linearGradient x1="100%" y1="100%" x2="0%" y2="0%" id="SvgjsLinearGradient1005"><stop stop-color="rgba(15, 70, 185, 0.2)" offset="0"></stop><stop stop-opacity="0" stop-color="rgba(15, 70, 185, 0.2)" offset="0.66"></stop></linearGradient></defs></svg>