<svg id="Color" enable-background="new 0 0 24 24" height="512" viewBox="0 0 24 24" width="512" xmlns="http://www.w3.org/2000/svg"><path d="m22.25 0h-20.5c-.965 0-1.75.785-1.75 1.75v2.5c0 .965.785 1.75 1.75 1.75h20.5c.965 0 1.75-.785 1.75-1.75v-2.5c0-.965-.785-1.75-1.75-1.75z" fill="#03a9f4"/><g fill="#90a4ae"><path d="m.75 10.5h9.5c.414 0 .75-.336.75-.75s-.336-.75-.75-.75h-9.5c-.414 0-.75.336-.75.75s.336.75.75.75z"/><path d="m.75 13.5h9.5c.414 0 .75-.336.75-.75s-.336-.75-.75-.75h-9.5c-.414 0-.75.336-.75.75s.336.75.75.75z"/><path d="m.75 16.5h9.5c.414 0 .75-.336.75-.75s-.336-.75-.75-.75h-9.5c-.414 0-.75.336-.75.75s.336.75.75.75z"/><path d="m.75 19.5h9.5c.414 0 .75-.336.75-.75s-.336-.75-.75-.75h-9.5c-.414 0-.75.336-.75.75s.336.75.75.75z"/><path d="m.75 22.5h9.5c.414 0 .75-.336.75-.75s-.336-.75-.75-.75h-9.5c-.414 0-.75.336-.75.75s.336.75.75.75z"/></g><path d="m24 10.5v10.5c0 .23-.05.45-.15.65-.16.33-.43.59-.77.73-.18.08-.37.12-.58.12h-8c-.83 0-1.5-.67-1.5-1.5v-10.5c0-.83.67-1.5 1.5-1.5h8c.83 0 1.5.67 1.5 1.5z" fill="#90caf9"/><path d="m24 16.82v4.18c0 .83-.67 1.5-1.5 1.5h-7.99l6.115-8.737c.089-.128.233-.206.388-.213s.305.06.405.179z" fill="#689f38"/><path d="m23.85 21.65c-.16.33-.43.59-.77.73-.18.08-.37.12-.58.12h-8c-.83 0-1.5-.67-1.5-1.5v-3.21l2.79-2.79c.19-.19.45-.3.71-.3.27 0 .52.11.71.3z" fill="#8bc34a"/></svg>