<?xml version="1.0" encoding="utf-8"?>
<svg xmlns="http://www.w3.org/2000/svg" style="margin: auto; background: rgb(241, 242, 243); display: block; shape-rendering: auto;" width="280" height="250" preserveAspectRatio="xMidYMid">
<style type="text/css">
  text {
    text-anchor: middle; font-size: 32px; opacity: 0;
  }
</style>
<g style="transform-origin:140px 125px;transform:scale(1)">
<g transform="translate(140,125)">
  <g transform="translate(0,0)"><g class="path" style="transform: matrix(1, 0, 0, 1, 0, 0); transform-origin: -81.76px -3.201px; animation: 0.5s linear -0.308s infinite normal forwards running tremble-acfc846e-8944-4e85-9fb5-9790cb934037;"><path d="M0.67-21.70L0.67-22.40L17.31-22.40L17.63-16.06L17.06-16.06L17.06-16.06Q15.71-19.30 14.24-20.50L14.24-20.50L14.24-20.50Q12.77-21.70 9.92-21.70L9.92-21.70L8.80-21.70L8.80-11.81L9.89-11.81L9.89-11.81Q11.39-11.81 12.42-12.94L12.42-12.94L12.42-12.94Q13.44-14.08 13.86-16L13.86-16L14.34-16L14.34-6.53L13.79-6.53L13.79-6.53Q13.22-8.93 12.24-9.95L12.24-9.95L12.24-9.95Q11.26-10.98 9.57-10.98L9.57-10.98L8.80-10.98L8.80-0.70L10.02-0.70L10.02-0.70Q12.96-0.70 15.02-2.46L15.02-2.46L15.02-2.46Q17.09-4.22 17.86-6.98L17.86-6.98L18.50-6.98L18.24 0L0.67 0L0.67-0.70L2.56-0.70L2.56-21.70L0.67-21.70" fill="#343f52" stroke="none" stroke-width="none" transform="translate(-91.34497737884521,7.998995892842601)" style="fill: rgb(52, 63, 82);"></path></g><g class="path" style="transform: matrix(1, 0, 0, 1, 0, 0); transform-origin: -62.27px 0.383996px; animation: 0.5s linear -0.286s infinite normal forwards running tremble-acfc846e-8944-4e85-9fb5-9790cb934037;"><path d="M27.97-7.52L27.97-7.52L28.90-7.52L28.90-9.98L28.90-9.98Q28.90-13.02 28.56-14.06L28.56-14.06L28.56-14.06Q28.22-15.10 27.26-15.10L27.26-15.10L27.26-15.10Q26.69-15.10 26.22-14.80L26.22-14.80L26.22-14.80Q25.76-14.50 25.76-13.97L25.76-13.97L25.76-13.97Q25.76-13.44 25.95-12.90L25.95-12.90L26.75-12.90L26.75-12.90Q27.01-12.22 27.01-11.28L27.01-11.28L27.01-11.28Q27.01-10.34 26.21-9.65L26.21-9.65L26.21-9.65Q25.41-8.96 24.19-8.96L24.19-8.96L24.19-8.96Q21.44-8.96 21.44-11.62L21.44-11.62L21.44-11.62Q21.44-15.55 28.13-15.55L28.13-15.55L28.13-15.55Q31.94-15.55 33.39-14.26L33.39-14.26L33.39-14.26Q34.85-12.96 34.85-9.50L34.85-9.50L34.85-3.01L34.85-3.01Q34.85-1.34 35.78-1.34L35.78-1.34L35.78-1.34Q36.86-1.34 37.06-4.64L37.06-4.64L37.54-4.61L37.54-4.61Q37.41-1.79 36.48-0.74L36.48-0.74L36.48-0.74Q35.55 0.32 33.44 0.32L33.44 0.32L33.44 0.32Q29.60 0.32 29.02-2.05L29.02-2.05L29.02-2.05Q28.61-0.83 27.78-0.26L27.78-0.26L27.78-0.26Q26.94 0.32 25.34 0.32L25.34 0.32L25.34 0.32Q20.61 0.32 20.61-3.55L20.61-3.55L20.61-3.55Q20.61-5.82 22.42-6.67L22.42-6.67L22.42-6.67Q24.22-7.52 27.97-7.52zM26.69-3.58L26.69-3.58Q26.69-1.92 26.86-1.44L26.86-1.44L26.86-1.44Q27.04-0.96 27.54-0.96L27.54-0.96L27.54-0.96Q28.03-0.96 28.46-1.78L28.46-1.78L28.46-1.78Q28.90-2.59 28.90-4.03L28.90-4.03L28.90-7.01L28.67-7.01L28.67-7.01Q26.69-7.01 26.69-4.10L26.69-4.10L26.69-3.58" fill="#343f52" stroke="none" stroke-width="none" transform="translate(-91.34497737884521,7.998995892842601)" style="fill: rgb(89, 93, 122);"></path></g><g class="path" style="transform: matrix(1, 0, 0, 1, 0, 0); transform-origin: -46.66px 0.348996px; animation: 0.5s linear -0.264s infinite normal forwards running tremble-acfc846e-8944-4e85-9fb5-9790cb934037;"><path d="M38.98 0.32L38.59 0.32L38.59-5.41L38.98-5.41L38.98-5.41Q39.81-2.62 41.22-1.50L41.22-1.50L41.22-1.50Q42.62-0.38 44.74-0.38L44.74-0.38L44.74-0.38Q48-0.38 48-2.46L48-2.46L48-2.46Q48-3.36 47.20-3.81L47.20-3.81L47.20-3.81Q45.95-4.51 44-4.90L44-4.90L44-4.90Q41.82-5.47 40.35-6.43L40.35-6.43L40.35-6.43Q38.59-7.58 38.59-10.08L38.59-10.08L38.59-10.08Q38.59-12.58 40.13-14.06L40.13-14.06L40.13-14.06Q41.66-15.55 44.22-15.55L44.22-15.55L44.22-15.55Q45.79-15.55 47.46-14.82L47.46-14.82L47.46-14.82Q48.06-14.56 48.38-14.56L48.38-14.56L48.38-14.56Q48.70-14.56 48.93-14.78L48.93-14.78L48.93-14.78Q49.15-15.01 49.47-15.62L49.47-15.62L49.82-15.62L49.82-10.72L49.44-10.72L49.44-10.72Q47.81-14.88 44.38-14.88L44.38-14.88L44.38-14.88Q42.88-14.88 42.14-14.35L42.14-14.35L42.14-14.35Q41.41-13.82 41.41-13.02L41.41-13.02L41.41-13.02Q41.41-12.54 41.63-12.27L41.63-12.27L41.63-12.27Q41.86-12 41.98-11.87L41.98-11.87L41.98-11.87Q42.11-11.74 42.40-11.60L42.40-11.60L42.40-11.60Q42.69-11.46 42.88-11.38L42.88-11.38L42.88-11.38Q43.07-11.30 43.47-11.17L43.47-11.17L43.47-11.17Q43.87-11.04 44.06-11.01L44.06-11.01L44.06-11.01Q46.24-10.46 47.20-10.06L47.20-10.06L47.20-10.06Q48.16-9.66 49.02-9.09L49.02-9.09L49.02-9.09Q50.78-7.87 50.78-5.17L50.78-5.17L50.78-5.17Q50.78-2.46 49.18-1.07L49.18-1.07L49.18-1.07Q47.58 0.32 44.80 0.32L44.80 0.32L44.80 0.32Q42.82 0.32 40.96-0.61L40.96-0.61L40.96-0.61Q40.58-0.86 40.35-0.86L40.35-0.86L40.35-0.86Q39.65-0.86 38.98 0.32L38.98 0.32" fill="#343f52" stroke="none" stroke-width="none" transform="translate(-91.34497737884521,7.998995892842601)" style="fill: rgb(52, 63, 82);"></path></g><g class="path" style="transform: matrix(1, 0, 0, 1, 0, 0); transform-origin: -32.015px 4.384px; animation: 0.5s linear -0.242s infinite normal forwards running tremble-acfc846e-8944-4e85-9fb5-9790cb934037;"><path d="M52.13-14.66L50.82-14.66L50.82-15.23L60.10-15.23L60.10-14.66L58.37-14.66L61.86-4.03L65.57-14.66L63.42-14.66L63.42-15.23L67.94-15.23L67.94-14.66L66.34-14.66L60.35 2.59L60.35 2.59Q59.30 5.60 57.98 6.80L57.98 6.80L57.98 6.80Q56.67 8 54.78 8L54.78 8L54.78 8Q52.90 8 51.81 7.14L51.81 7.14L51.81 7.14Q50.72 6.27 50.72 4.93L50.72 4.93L50.72 4.93Q50.72 3.58 51.42 2.88L51.42 2.88L51.42 2.88Q52.13 2.18 53.28 2.18L53.28 2.18L53.28 2.18Q55.94 2.18 55.94 4.38L55.94 4.38L55.94 4.38Q55.94 4.86 55.74 5.54L55.74 5.54L54.62 5.54L54.62 5.54Q54.37 6.27 54.56 6.75L54.56 6.75L54.56 6.75Q54.75 7.23 55.42 7.23L55.42 7.23L55.42 7.23Q56.74 7.23 57.76 5.94L57.76 5.94L57.76 5.94Q58.78 4.64 59.71 1.98L59.71 1.98L60.42 0L57.60 0L52.13-14.66" fill="#343f52" stroke="none" stroke-width="none" transform="translate(-91.34497737884521,7.998995892842601)" style="fill: rgb(89, 93, 122);"></path></g><g class="path" style="transform: matrix(1, 0, 0, 1, 0, 0); transform-origin: -12.705px -3.041px; animation: 0.5s linear -0.22s infinite normal forwards running tremble-acfc846e-8944-4e85-9fb5-9790cb934037;"><path d="M76.06-21.79L81.44-5.79L87.01-21.79L84.51-21.79L84.51-22.40L89.41-22.40L89.41-21.79L87.90-21.79L80.19 0.32L77.50 0.32L69.34-21.79L67.87-21.79L67.87-22.40L78.34-22.40L78.34-21.79L76.06-21.79" fill="#343f52" stroke="none" stroke-width="none" transform="translate(-91.34497737884521,7.998995892842601)" style="fill: rgb(52, 63, 82);"></path></g><g class="path" style="transform: matrix(1, 0, 0, 1, 0, 0); transform-origin: 2.88002px -12.416px; animation: 0.5s linear -0.198s infinite normal forwards running tremble-acfc846e-8944-4e85-9fb5-9790cb934037;"><path d="M94.14-17.44L94.14-17.44L94.14-17.44Q92.45-17.44 91.73-18.30L91.73-18.30L91.73-18.30Q91.01-19.17 91.01-20.45L91.01-20.45L91.01-20.45Q91.01-21.73 91.79-22.56L91.79-22.56L91.79-22.56Q92.58-23.39 94.18-23.39L94.18-23.39L94.18-23.39Q95.78-23.39 96.61-22.64L96.61-22.64L96.61-22.64Q97.44-21.89 97.44-20.50L97.44-20.50L97.44-20.50Q97.44-19.10 96.64-18.27L96.64-18.27L96.64-18.27Q95.84-17.44 94.14-17.44" fill="#343f52" stroke="none" stroke-width="none" transform="translate(-91.34497737884521,7.998995892842601)" style="fill: rgb(89, 93, 122);"></path></g><g class="path" style="transform: matrix(1, 0, 0, 1, 0, 0); transform-origin: 2.78002px 0.383996px; animation: 0.5s linear -0.176s infinite normal forwards running tremble-acfc846e-8944-4e85-9fb5-9790cb934037;"><path d="M89.31-14.66L89.31-15.23L97.15-15.23L97.15-0.58L98.94-0.58L98.94 0L89.44 0L89.44-0.58L91.20-0.58L91.20-14.66L89.31-14.66" fill="#343f52" stroke="none" stroke-width="none" transform="translate(-91.34497737884521,7.998995892842601)" style="fill: rgb(52, 63, 82);"></path></g><g class="path" style="transform: matrix(1, 0, 0, 1, 0, 0); transform-origin: 17.165px 4.034px; animation: 0.5s linear -0.154s infinite normal forwards running tremble-acfc846e-8944-4e85-9fb5-9790cb934037;"><path d="M111.26-8.61L111.26-8.61Q111.26-11.90 110.94-13.04L110.94-13.04L110.94-13.04Q110.62-14.18 109.70-14.18L109.70-14.18L109.70-14.18Q108.77-14.18 108.03-12.98L108.03-12.98L108.03-12.98Q107.30-11.78 107.30-9.76L107.30-9.76L107.30-3.90L107.30-3.90Q107.30-2.53 107.84-1.57L107.84-1.57L107.84-1.57Q108.38-0.61 109.44-0.61L109.44-0.61L109.44-0.61Q110.50-0.61 110.88-2.02L110.88-2.02L110.88-2.02Q111.26-3.42 111.26-6.94L111.26-6.94L111.26-8.61zM99.65-15.23L107.23-15.23L107.23-12.70L107.23-12.70Q108.48-15.55 111.65-15.55L111.65-15.55L111.65-15.55Q114.40-15.55 115.92-13.57L115.92-13.57L115.92-13.57Q117.44-11.58 117.44-7.55L117.44-7.55L117.44-7.55Q117.44-3.52 115.79-1.60L115.79-1.60L115.79-1.60Q114.14 0.32 110.85 0.32L110.85 0.32L110.85 0.32Q109.31 0.32 108.54-0.06L108.54-0.06L108.54-0.06Q107.78-0.45 107.30-1.25L107.30-1.25L107.30 7.04L111.42 7.04L111.42 7.62L99.58 7.62L99.58 7.04L101.34 7.04L101.34-14.66L99.65-14.66L99.65-15.23" fill="#343f52" stroke="none" stroke-width="none" transform="translate(-91.34497737884521,7.998995892842601)" style="fill: rgb(89, 93, 122);"></path></g><g class="path" style="transform: matrix(1, 0, 0, 1, 0, 0); transform-origin: 31.84px -12.416px; animation: 0.5s linear -0.132s infinite normal forwards running tremble-acfc846e-8944-4e85-9fb5-9790cb934037;"><path d="M123.10-17.44L123.10-17.44L123.10-17.44Q121.41-17.44 120.69-18.30L120.69-18.30L120.69-18.30Q119.97-19.17 119.97-20.45L119.97-20.45L119.97-20.45Q119.97-21.73 120.75-22.56L120.75-22.56L120.75-22.56Q121.54-23.39 123.14-23.39L123.14-23.39L123.14-23.39Q124.74-23.39 125.57-22.64L125.57-22.64L125.57-22.64Q126.40-21.89 126.40-20.50L126.40-20.50L126.40-20.50Q126.40-19.10 125.60-18.27L125.60-18.27L125.60-18.27Q124.80-17.44 123.10-17.44" fill="#343f52" stroke="none" stroke-width="none" transform="translate(-91.34497737884521,7.998995892842601)" style="fill: rgb(52, 63, 82);"></path></g><g class="path" style="transform: matrix(1, 0, 0, 1, 0, 0); transform-origin: 31.74px 0.383996px; animation: 0.5s linear -0.11s infinite normal forwards running tremble-acfc846e-8944-4e85-9fb5-9790cb934037;"><path d="M118.27-14.66L118.27-15.23L126.11-15.23L126.11-0.58L127.90-0.58L127.90 0L118.40 0L118.40-0.58L120.16-0.58L120.16-14.66L118.27-14.66" fill="#343f52" stroke="none" stroke-width="none" transform="translate(-91.34497737884521,7.998995892842601)" style="fill: rgb(89, 93, 122);"></path></g><g class="path" style="transform: matrix(1, 0, 0, 1, 0, 0); transform-origin: 46.88px 0.223996px; animation: 0.5s linear -0.088s infinite normal forwards running tremble-acfc846e-8944-4e85-9fb5-9790cb934037;"><path d="M128.61-14.66L128.61-15.23L136.32-15.23L136.32-12.29L136.32-12.29Q136.83-13.76 137.89-14.66L137.89-14.66L137.89-14.66Q138.94-15.55 141.09-15.55L141.09-15.55L141.09-15.55Q146.05-15.55 146.05-10.21L146.05-10.21L146.05-0.58L147.84-0.58L147.84 0L138.78 0L138.78-0.58L140.10-0.58L140.10-10.98L140.10-10.98Q140.10-12.90 139.84-13.46L139.84-13.46L139.84-13.46Q139.58-14.02 138.91-14.02L138.91-14.02L138.91-14.02Q137.89-14.02 137.10-12.67L137.10-12.67L137.10-12.67Q136.32-11.33 136.32-9.41L136.32-9.41L136.32-0.58L137.70-0.58L137.70 0L128.61 0L128.61-0.58L130.37-0.58L130.37-14.66L128.61-14.66" fill="#343f52" stroke="none" stroke-width="none" transform="translate(-91.34497737884521,7.998995892842601)" style="fill: rgb(52, 63, 82);"></path></g><g class="path" style="transform: matrix(1, 0, 0, 1, 0, 0); transform-origin: 60.835px 5.534px; animation: 0.5s linear -0.066s infinite normal forwards running tremble-acfc846e-8944-4e85-9fb5-9790cb934037;"><path d="M152.14 0.32L152.14 0.32L152.14 0.32Q150.75 0.32 150.06-0.50L150.06-0.50L150.06-0.50Q149.38-1.31 149.38-2.48L149.38-2.48L149.38-2.48Q149.38-3.65 150.10-4.45L150.10-4.45L150.10-4.45Q150.82-5.25 152.13-5.25L152.13-5.25L152.13-5.25Q153.44-5.25 154.21-4.58L154.21-4.58L154.21-4.58Q154.98-3.90 154.98-2.56L154.98-2.56L154.98-2.56Q154.98-1.22 154.26-0.45L154.26-0.45L154.26-0.45Q153.54 0.32 152.14 0.32" fill="#343f52" stroke="none" stroke-width="none" transform="translate(-91.34497737884521,7.998995892842601)" style="fill: rgb(89, 93, 122);"></path></g><g class="path" style="transform: matrix(1, 0, 0, 1, 0, 0); transform-origin: 70.175px -12.416px; animation: 0.5s linear -0.044s infinite normal forwards running tremble-acfc846e-8944-4e85-9fb5-9790cb934037;"><path d="M161.44-17.44L161.44-17.44L161.44-17.44Q159.74-17.44 159.02-18.30L159.02-18.30L159.02-18.30Q158.30-19.17 158.30-20.45L158.30-20.45L158.30-20.45Q158.30-21.73 159.09-22.56L159.09-22.56L159.09-22.56Q159.87-23.39 161.47-23.39L161.47-23.39L161.47-23.39Q163.07-23.39 163.90-22.64L163.90-22.64L163.90-22.64Q164.74-21.89 164.74-20.50L164.74-20.50L164.74-20.50Q164.74-19.10 163.94-18.27L163.94-18.27L163.94-18.27Q163.14-17.44 161.44-17.44" fill="#343f52" stroke="none" stroke-width="none" transform="translate(-91.34497737884521,7.998995892842601)" style="fill: rgb(52, 63, 82);"></path></g><g class="path" style="transform: matrix(1, 0, 0, 1, 0, 0); transform-origin: 70.08px 0.383996px; animation: 0.5s linear -0.022s infinite normal forwards running tremble-acfc846e-8944-4e85-9fb5-9790cb934037;"><path d="M156.61-14.66L156.61-15.23L164.45-15.23L164.45-0.58L166.24-0.58L166.24 0L156.74 0L156.74-0.58L158.50-0.58L158.50-14.66L156.61-14.66" fill="#343f52" stroke="none" stroke-width="none" transform="translate(-91.34497737884521,7.998995892842601)" style="fill: rgb(89, 93, 122);"></path></g><g class="path" style="transform: matrix(1, 0, 0, 1, 0, 0); transform-origin: 83.905px 0.383996px; animation: 0.5s linear 0s infinite normal forwards running tremble-acfc846e-8944-4e85-9fb5-9790cb934037;"><path d="M177.22-6.30L177.22-6.30L177.22-9.02L177.22-9.02Q177.22-12.13 176.88-13.55L176.88-13.55L176.88-13.55Q176.54-14.98 175.33-14.98L175.33-14.98L175.33-14.98Q174.62-14.98 174.19-14.58L174.19-14.58L174.19-14.58Q173.76-14.18 173.57-13.25L173.57-13.25L173.57-13.25Q173.28-11.81 173.28-8.86L173.28-8.86L173.28-6.37L173.28-6.37Q173.28-2.88 173.49-2.18L173.49-2.18L173.49-2.18Q173.70-1.47 173.92-1.02L173.92-1.02L173.92-1.02Q174.27-0.26 175.30-0.26L175.30-0.26L175.30-0.26Q176.54-0.26 176.93-1.70L176.93-1.70L176.93-1.70Q177.22-2.72 177.22-6.30zM175.23 0.32L175.23 0.32Q171.23 0.32 169.18-1.73L169.18-1.73L169.18-1.73Q167.14-3.78 167.14-7.60L167.14-7.60L167.14-7.60Q167.14-11.42 169.33-13.49L169.33-13.49L169.33-13.49Q171.52-15.55 175.49-15.55L175.49-15.55L175.49-15.55Q179.46-15.55 181.41-13.65L181.41-13.65L181.41-13.65Q183.36-11.74 183.36-7.84L183.36-7.84L183.36-7.84Q183.36 0.32 175.23 0.32L175.23 0.32" fill="#343f52" stroke="none" stroke-width="none" transform="translate(-91.34497737884521,7.998995892842601)" style="fill: rgb(52, 63, 82);"></path></g></g>
</g>
</g>
<style id="tremble-acfc846e-8944-4e85-9fb5-9790cb934037" data-anikit="">@keyframes tremble-acfc846e-8944-4e85-9fb5-9790cb934037 {
  0% { transform: translate(0px,0px) rotate(0deg) scale(1) }
  3.33333% { transform: translate(-0.18923px,1.45485px) rotate(0deg) scale(1) }
  6.66667% { transform: translate(-0.84296px,-1.32524px) rotate(0deg) scale(1) }
  10% { transform: translate(0.67971px,1.00422px) rotate(0deg) scale(1) }
  13.33333% { transform: translate(-0.5056px,0.83616px) rotate(0deg) scale(1) }
  16.66667% { transform: translate(1.31368px,-0.51401px) rotate(0deg) scale(1) }
  20% { transform: translate(-1.21184px,1.49193px) rotate(0deg) scale(1) }
  23.33333% { transform: translate(1.09065px,-0.21259px) rotate(0deg) scale(1) }
  26.66667% { transform: translate(-1.49916px,0.56159px) rotate(0deg) scale(1) }
  30% { transform: translate(1.48086px,1.21228px) rotate(0deg) scale(1) }
  33.33333% { transform: translate(-1.43889px,-1.152px) rotate(0deg) scale(1) }
  36.66667% { transform: translate(1.35914px,1.34835px) rotate(0deg) scale(1) }
  40% { transform: translate(-1.42834px,0.3091px) rotate(0deg) scale(1) }
  43.33333% { transform: translate(1.47472px,-1.49889px) rotate(0deg) scale(1) }
  46.66667% { transform: translate(-0.92402px,1.4416px) rotate(0deg) scale(1) }
  50% { transform: translate(1.0657px,-0.75306px) rotate(0deg) scale(1) }
  53.33333% { transform: translate(-1.19035px,-1.07484px) rotate(0deg) scale(1) }
  56.66667% { transform: translate(0.28828px,0.79337px) rotate(0deg) scale(1) }
  60% { transform: translate(-0.47167px,-1.42789px) rotate(0deg) scale(1) }
  63.33333% { transform: translate(0.64753px,-0.09795px) rotate(0deg) scale(1) }
  66.66667% { transform: translate(0.41006px,-0.26292px) rotate(0deg) scale(1) }
  70% { transform: translate(-0.22477px,-1.3683px) rotate(0deg) scale(1) }
  73.33333% { transform: translate(0.03588px,0.92931px) rotate(0deg) scale(1) }
  76.66667% { transform: translate(-1.01937px,-1.18398px) rotate(0deg) scale(1) }
  80% { transform: translate(0.8724px,-0.60494px) rotate(0deg) scale(1) }
  83.33333% { transform: translate(-0.71151px,1.4786px) rotate(0deg) scale(1) }
  86.66667% { transform: translate(1.40734px,-1.49607px) rotate(0deg) scale(1) }
  90% { transform: translate(-1.33062px,0.46957px) rotate(0deg) scale(1) }
  93.33333% { transform: translate(1.23264px,1.26738px) rotate(0deg) scale(1) }
  96.66667% { transform: translate(-1.48975px,-1.03867px) rotate(0deg) scale(1) }
  100% { transform: translate(0,0) rotate(0) scale(1) }
}</style></svg>