<?xml version="1.0" encoding="utf-8"?><svg xmlns="http://www.w3.org/2000/svg" xmlns:xlink="http://www.w3.org/1999/xlink" width="1536" height="674" preserveAspectRatio="xMidYMid" viewBox="0 0 1536 674" style="z-index:1;margin-right:-2px;display:block;background-repeat-y:initial;background-repeat-x:initial;background-color:rgb(241, 242, 243);animation-play-state:paused" ><g transform="" style="animation-play-state:paused" ><defs style="animation-play-state:paused" ><filter id="blur-v1q59m9zrgm-1" x="-1" y="-1" width="3" height="3" style="animation-play-state:paused" ><feGaussianBlur stdDeviation="3" style="animation-play-state:paused" ></feGaussianBlur></filter>
<filter id="blur-v1q59m9zrgm-2" x="-1" y="-1" width="3" height="3" style="animation-play-state:paused" ><feGaussianBlur stdDeviation="1.5" style="animation-play-state:paused" ></feGaussianBlur></filter>
<filter id="blur-v1q59m9zrgm-3" x="-1" y="-1" width="3" height="3" style="animation-play-state:paused" ><feGaussianBlur stdDeviation="1" style="animation-play-state:paused" ></feGaussianBlur></filter></defs>
<circle cx="597.6193875187735" cy="0" transform="matrix(1,0,0,1,0,322.27484130859375)" r="4.196037983355375" fill="#93dbe9" opacity="0.36000000000000004" style="transform:matrix(1, 0, 0, 1, 0, 322.275);opacity:0.36;animation-play-state:paused" ></circle>
<circle cx="391.25607968580744" cy="0" transform="matrix(1,0,0,1,0,628.1361083984375)" r="15.70354336080077" fill="#5e6fa3" opacity="0.7200000000000001" style="transform:matrix(1, 0, 0, 1, 0, 628.136);opacity:0.72;animation-play-state:paused" ></circle>
<circle cx="677.4062082049118" cy="0" transform="matrix(1,0,0,1,0,481.3805236816406)" r="15.513250517991148" fill="#5e6fa3" opacity="0.7200000000000001" style="transform:matrix(1, 0, 0, 1, 0, 481.381);opacity:0.72;animation-play-state:paused" ></circle>
<circle cx="488.5219228262771" cy="0" transform="matrix(1,0,0,1,0,349.0051574707031)" r="6.894035761637381" fill="#689cc5" opacity="0.36000000000000004" style="transform:matrix(1, 0, 0, 1, 0, 349.005);opacity:0.36;animation-play-state:paused" ></circle>
<circle cx="237.9121732453857" cy="0" transform="matrix(1,0,0,1,0,491.39483642578125)" r="15.015248795127151" fill="#5e6fa3" opacity="0.7200000000000001" style="transform:matrix(1, 0, 0, 1, 0, 491.395);opacity:0.72;animation-play-state:paused" ></circle>
<circle cx="1284.0005365451982" cy="0" transform="matrix(1,0,0,1,0,23.46142578125)" r="15.510401607518476" fill="#5e6fa3" opacity="0.7200000000000001" style="transform:matrix(1, 0, 0, 1, 0, 23.4614);opacity:0.72;animation-play-state:paused" ></circle>
<circle cx="457.124431689266" cy="0" transform="matrix(1,0,0,1,0,261.40618896484375)" r="5.004290213212154" fill="#689cc5" opacity="0.36000000000000004" style="transform:matrix(1, 0, 0, 1, 0, 261.406);opacity:0.36;animation-play-state:paused" ></circle>
<circle cx="999.4005021251638" cy="0" transform="matrix(1,0,0,1,0,58.1673583984375)" r="11.134262590559045" fill="#93dbe9" opacity="0.63" style="transform:matrix(1, 0, 0, 1, 0, 58.1674);opacity:0.63;animation-play-state:paused" ></circle>
<circle cx="1455.9876000443676" cy="0" transform="matrix(1,0,0,1,0,556.4832763671875)" r="8.027026920265454" fill="#93dbe9" opacity="0.63" style="transform:matrix(1, 0, 0, 1, 0, 556.483);opacity:0.63;animation-play-state:paused" ></circle>
<circle cx="1406.7927436479915" cy="0" transform="matrix(1,0,0,1,0,387.56854248046875)" r="11.186715925254793" fill="#689cc5" opacity="0.63" style="transform:matrix(1, 0, 0, 1, 0, 387.569);opacity:0.63;animation-play-state:paused" ></circle>
<circle cx="1524.3110809599266" cy="0" transform="matrix(1,0,0,1,0,161.03326416015625)" r="5.257516649472807" fill="#5e6fa3" opacity="0.36000000000000004" style="transform:matrix(1, 0, 0, 1, 0, 161.033);opacity:0.36;animation-play-state:paused" ></circle>
<circle cx="32.938160179242914" cy="0" transform="matrix(1,0,0,1,0,363.1044006347656)" r="14.6184331635922" fill="#93dbe9" opacity="0.7200000000000001" style="transform:matrix(1, 0, 0, 1, 0, 363.104);opacity:0.72;animation-play-state:paused" ></circle>
<circle cx="453.0869788339121" cy="0" transform="matrix(1,0,0,1,0,320.9001159667969)" r="7.721539277984784" fill="#5e6fa3" opacity="0.36000000000000004" style="transform:matrix(1, 0, 0, 1, 0, 320.9);opacity:0.36;animation-play-state:paused" ></circle>
<circle cx="1089.6049020723822" cy="0" transform="matrix(1,0,0,1,0,377.96044921875)" r="11.096484652515636" fill="#5e6fa3" opacity="0.63" style="transform:matrix(1, 0, 0, 1, 0, 377.96);opacity:0.63;animation-play-state:paused" ></circle>
<circle cx="1162.1084063051846" cy="0" transform="matrix(1,0,0,1,0,525.3706665039062)" r="13.223483319068968" fill="#689cc5" opacity="0.7200000000000001" style="transform:matrix(1, 0, 0, 1, 0, 525.371);opacity:0.72;animation-play-state:paused" ></circle></g></svg>