<?xml version="1.0" encoding="utf-8"?>
<svg xmlns="http://www.w3.org/2000/svg" style="margin: auto; background: none; display: block; shape-rendering: auto;" width="280" height="250" preserveAspectRatio="xMidYMid">
<style type="text/css">
  text {
    text-anchor: middle; font-size: 44px; opacity: 0;
  }
</style>
<g style="transform-origin:140px 125px;transform:scale(1)">
<g transform="translate(140,125)">
  <g transform="translate(0,0)"><g class="path" style="transform: matrix(1, 0, 0, 1, 0, 0); transform-origin: -109.39px -4.41318px; animation: 0.5s linear -0.308s infinite normal forwards running tremble-d7083185-ab4a-459f-b46f-de6463797bc9;"><path d="M0.92-29.83L0.92-30.80L23.80-30.80L24.24-22.09L23.45-22.09L23.45-22.09Q21.60-26.53 19.58-28.18L19.58-28.18L19.58-28.18Q17.56-29.83 13.64-29.83L13.64-29.83L12.10-29.83L12.10-16.24L13.60-16.24L13.60-16.24Q15.66-16.24 17.07-17.80L17.07-17.80L17.07-17.80Q18.48-19.36 19.05-22L19.05-22L19.71-22L19.71-8.98L18.96-8.98L18.96-8.98Q18.17-12.28 16.83-13.68L16.83-13.68L16.83-13.68Q15.49-15.09 13.16-15.09L13.16-15.09L12.10-15.09L12.10-0.97L13.77-0.97L13.77-0.97Q17.82-0.97 20.66-3.39L20.66-3.39L20.66-3.39Q23.50-5.81 24.55-9.59L24.55-9.59L25.43-9.59L25.08 0L0.92 0L0.92-0.97L3.52-0.97L3.52-29.83L0.92-29.83" fill="#cc4f41" stroke="none" stroke-width="none" transform="translate(-122.56498432159424,10.986816390991216)" style="fill: rgb(204, 79, 65);"></path></g><g class="path" style="transform: matrix(1, 0, 0, 1, 0, 0); transform-origin: -82.59px 0.516817px; animation: 0.5s linear -0.286s infinite normal forwards running tremble-d7083185-ab4a-459f-b46f-de6463797bc9;"><path d="M38.46-10.34L38.46-10.34L39.73-10.34L39.73-13.73L39.73-13.73Q39.73-17.91 39.27-19.34L39.27-19.34L39.27-19.34Q38.81-20.77 37.49-20.77L37.49-20.77L37.49-20.77Q36.70-20.77 36.06-20.35L36.06-20.35L36.06-20.35Q35.42-19.93 35.42-19.21L35.42-19.21L35.42-19.21Q35.42-18.48 35.68-17.73L35.68-17.73L36.78-17.73L36.78-17.73Q37.14-16.81 37.14-15.51L37.14-15.51L37.14-15.51Q37.14-14.21 36.04-13.27L36.04-13.27L36.04-13.27Q34.94-12.32 33.26-12.32L33.26-12.32L33.26-12.32Q29.48-12.32 29.48-15.97L29.48-15.97L29.48-15.97Q29.48-21.38 38.68-21.38L38.68-21.38L38.68-21.38Q43.91-21.38 45.91-19.60L45.91-19.60L45.91-19.60Q47.92-17.82 47.92-13.07L47.92-13.07L47.92-4.14L47.92-4.14Q47.92-1.85 49.19-1.85L49.19-1.85L49.19-1.85Q50.69-1.85 50.95-6.38L50.95-6.38L51.61-6.34L51.61-6.34Q51.44-2.46 50.16-1.01L50.16-1.01L50.16-1.01Q48.88 0.44 45.98 0.44L45.98 0.44L45.98 0.44Q40.70 0.44 39.91-2.82L39.91-2.82L39.91-2.82Q39.34-1.14 38.19-0.35L38.19-0.35L38.19-0.35Q37.05 0.44 34.85 0.44L34.85 0.44L34.85 0.44Q28.34 0.44 28.34-4.88L28.34-4.88L28.34-4.88Q28.34-8.01 30.82-9.17L30.82-9.17L30.82-9.17Q33.31-10.34 38.46-10.34zM36.70-4.93L36.70-4.93Q36.70-2.64 36.94-1.98L36.94-1.98L36.94-1.98Q37.18-1.32 37.86-1.32L37.86-1.32L37.86-1.32Q38.54-1.32 39.14-2.44L39.14-2.44L39.14-2.44Q39.73-3.56 39.73-5.54L39.73-5.54L39.73-9.64L39.42-9.64L39.42-9.64Q36.70-9.64 36.70-5.63L36.70-5.63L36.70-4.93" fill="#cc4f41" stroke="none" stroke-width="none" transform="translate(-122.56498432159424,10.986816390991216)" style="fill: rgb(204, 79, 65);"></path></g><g class="path" style="transform: matrix(1, 0, 0, 1, 0, 0); transform-origin: -61.12px 0.471817px; animation: 0.5s linear -0.264s infinite normal forwards running tremble-d7083185-ab4a-459f-b46f-de6463797bc9;"><path d="M53.59 0.44L53.06 0.44L53.06-7.44L53.59-7.44L53.59-7.44Q54.74-3.61 56.67-2.07L56.67-2.07L56.67-2.07Q58.61-0.53 61.51-0.53L61.51-0.53L61.51-0.53Q66-0.53 66-3.39L66-3.39L66-3.39Q66-4.62 64.90-5.24L64.90-5.24L64.90-5.24Q63.18-6.20 60.50-6.73L60.50-6.73L60.50-6.73Q57.51-7.52 55.48-8.84L55.48-8.84L55.48-8.84Q53.06-10.43 53.06-13.86L53.06-13.86L53.06-13.86Q53.06-17.29 55.18-19.34L55.18-19.34L55.18-19.34Q57.29-21.38 60.81-21.38L60.81-21.38L60.81-21.38Q62.96-21.38 65.25-20.37L65.25-20.37L65.25-20.37Q66.09-20.02 66.53-20.02L66.53-20.02L66.53-20.02Q66.97-20.02 67.28-20.33L67.28-20.33L67.28-20.33Q67.58-20.64 68.02-21.47L68.02-21.47L68.51-21.47L68.51-14.74L67.98-14.74L67.98-14.74Q65.74-20.46 61.03-20.46L61.03-20.46L61.03-20.46Q58.96-20.46 57.95-19.73L57.95-19.73L57.95-19.73Q56.94-19.01 56.94-17.91L56.94-17.91L56.94-17.91Q56.94-17.25 57.24-16.87L57.24-16.87L57.24-16.87Q57.55-16.50 57.73-16.32L57.73-16.32L57.73-16.32Q57.90-16.15 58.30-15.95L58.30-15.95L58.30-15.95Q58.70-15.75 58.96-15.64L58.96-15.64L58.96-15.64Q59.22-15.53 59.77-15.36L59.77-15.36L59.77-15.36Q60.32-15.18 60.59-15.14L60.59-15.14L60.59-15.14Q63.58-14.39 64.90-13.84L64.90-13.84L64.90-13.84Q66.22-13.29 67.41-12.50L67.41-12.50L67.41-12.50Q69.83-10.82 69.83-7.11L69.83-7.11L69.83-7.11Q69.83-3.39 67.63-1.47L67.63-1.47L67.63-1.47Q65.43 0.44 61.60 0.44L61.60 0.44L61.60 0.44Q58.87 0.44 56.32-0.84L56.32-0.84L56.32-0.84Q55.79-1.19 55.48-1.19L55.48-1.19L55.48-1.19Q54.52-1.19 53.59 0.44L53.59 0.44" fill="#cc4f41" stroke="none" stroke-width="none" transform="translate(-122.56498432159424,10.986816390991216)" style="fill: rgb(204, 79, 65);"></path></g><g class="path" style="transform: matrix(1, 0, 0, 1, 0, 0); transform-origin: -40.99px 6.01682px; animation: 0.5s linear -0.242s infinite normal forwards running tremble-d7083185-ab4a-459f-b46f-de6463797bc9;"><path d="M71.68-20.15L69.87-20.15L69.87-20.94L82.63-20.94L82.63-20.15L80.26-20.15L85.05-5.54L90.16-20.15L87.21-20.15L87.21-20.94L93.41-20.94L93.41-20.15L91.21-20.15L82.98 3.56L82.98 3.56Q81.53 7.70 79.73 9.35L79.73 9.35L79.73 9.35Q77.92 11 75.33 11L75.33 11L75.33 11Q72.73 11 71.24 9.81L71.24 9.81L71.24 9.81Q69.74 8.62 69.74 6.78L69.74 6.78L69.74 6.78Q69.74 4.93 70.71 3.96L70.71 3.96L70.71 3.96Q71.68 2.99 73.26 2.99L73.26 2.99L73.26 2.99Q76.91 2.99 76.91 6.03L76.91 6.03L76.91 6.03Q76.91 6.69 76.65 7.61L76.65 7.61L75.11 7.61L75.11 7.61Q74.76 8.62 75.02 9.28L75.02 9.28L75.02 9.28Q75.28 9.94 76.21 9.94L76.21 9.94L76.21 9.94Q78.01 9.94 79.42 8.16L79.42 8.16L79.42 8.16Q80.83 6.38 82.10 2.73L82.10 2.73L83.07 0L79.20 0L71.68-20.15" fill="#cc4f41" stroke="none" stroke-width="none" transform="translate(-122.56498432159424,10.986816390991216)" style="fill: rgb(204, 79, 65);"></path></g><g class="path" style="transform: matrix(1, 0, 0, 1, 0, 0); transform-origin: -17.8px 0.516816px; animation: 0.5s linear -0.22s infinite normal forwards running tremble-d7083185-ab4a-459f-b46f-de6463797bc9;"><path d="M94.86-20.15L93.06-20.15L93.06-20.94L106.22-20.94L106.22-20.15L103.44-20.15L108.72-5.54L113.48-20.15L110.53-20.15L110.53-20.94L116.47-20.94L116.47-20.15L114.53-20.15L108.02 0L103.00 0L94.86-20.15" fill="#cc4f41" stroke="none" stroke-width="none" transform="translate(-122.56498432159424,10.986816390991216)" style="fill: rgb(204, 79, 65);"></path></g><g class="path" style="transform: matrix(1, 0, 0, 1, 0, 0); transform-origin: 0.920006px -17.0832px; animation: 0.5s linear -0.198s infinite normal forwards running tremble-d7083185-ab4a-459f-b46f-de6463797bc9;"><path d="M123.38-23.98L123.38-23.98L123.38-23.98Q121.04-23.98 120.05-25.17L120.05-25.17L120.05-25.17Q119.06-26.36 119.06-28.12L119.06-28.12L119.06-28.12Q119.06-29.88 120.14-31.02L120.14-31.02L120.14-31.02Q121.22-32.16 123.42-32.16L123.42-32.16L123.42-32.16Q125.62-32.16 126.76-31.13L126.76-31.13L126.76-31.13Q127.91-30.10 127.91-28.18L127.91-28.18L127.91-28.18Q127.91-26.27 126.81-25.12L126.81-25.12L126.81-25.12Q125.71-23.98 123.38-23.98" fill="#cc4f41" stroke="none" stroke-width="none" transform="translate(-122.56498432159424,10.986816390991216)" style="fill: rgb(204, 79, 65);"></path></g><g class="path" style="transform: matrix(1, 0, 0, 1, 0, 0); transform-origin: 0.790005px 0.516816px; animation: 0.5s linear -0.176s infinite normal forwards running tremble-d7083185-ab4a-459f-b46f-de6463797bc9;"><path d="M116.73-20.15L116.73-20.94L127.51-20.94L127.51-0.79L129.98-0.79L129.98 0L116.91 0L116.91-0.79L119.33-0.79L119.33-20.15L116.73-20.15" fill="#cc4f41" stroke="none" stroke-width="none" transform="translate(-122.56498432159424,10.986816390991216)" style="fill: rgb(204, 79, 65);"></path></g><g class="path" style="transform: matrix(1, 0, 0, 1, 0, 0); transform-origin: 20.57px 5.53182px; animation: 0.5s linear -0.154s infinite normal forwards running tremble-d7083185-ab4a-459f-b46f-de6463797bc9;"><path d="M146.92-11.84L146.92-11.84Q146.92-16.37 146.48-17.93L146.48-17.93L146.48-17.93Q146.04-19.49 144.76-19.49L144.76-19.49L144.76-19.49Q143.48-19.49 142.47-17.84L142.47-17.84L142.47-17.84Q141.46-16.19 141.46-13.42L141.46-13.42L141.46-5.37L141.46-5.37Q141.46-3.48 142.21-2.16L142.21-2.16L142.21-2.16Q142.96-0.84 144.41-0.84L144.41-0.84L144.41-0.84Q145.86-0.84 146.39-2.77L146.39-2.77L146.39-2.77Q146.92-4.71 146.92-9.55L146.92-9.55L146.92-11.84zM130.94-20.94L141.37-20.94L141.37-17.47L141.37-17.47Q143.09-21.38 147.44-21.38L147.44-21.38L147.44-21.38Q151.23-21.38 153.32-18.66L153.32-18.66L153.32-18.66Q155.41-15.93 155.41-10.38L155.41-10.38L155.41-10.38Q155.41-4.84 153.14-2.20L153.14-2.20L153.14-2.20Q150.88 0.44 146.34 0.44L146.34 0.44L146.34 0.44Q144.23 0.44 143.18-0.09L143.18-0.09L143.18-0.09Q142.12-0.62 141.46-1.72L141.46-1.72L141.46 9.68L147.14 9.68L147.14 10.47L130.86 10.47L130.86 9.68L133.28 9.68L133.28-20.15L130.94-20.15L130.94-20.94" fill="#cc4f41" stroke="none" stroke-width="none" transform="translate(-122.56498432159424,10.986816390991216)" style="fill: rgb(204, 79, 65);"></path></g><g class="path" style="transform: matrix(1, 0, 0, 1, 0, 0); transform-origin: 40.74px -17.0832px; animation: 0.5s linear -0.132s infinite normal forwards running tremble-d7083185-ab4a-459f-b46f-de6463797bc9;"><path d="M163.20-23.98L163.20-23.98L163.20-23.98Q160.86-23.98 159.87-25.17L159.87-25.17L159.87-25.17Q158.88-26.36 158.88-28.12L158.88-28.12L158.88-28.12Q158.88-29.88 159.96-31.02L159.96-31.02L159.96-31.02Q161.04-32.16 163.24-32.16L163.24-32.16L163.24-32.16Q165.44-32.16 166.58-31.13L166.58-31.13L166.58-31.13Q167.73-30.10 167.73-28.18L167.73-28.18L167.73-28.18Q167.73-26.27 166.63-25.12L166.63-25.12L166.63-25.12Q165.53-23.98 163.20-23.98" fill="#cc4f41" stroke="none" stroke-width="none" transform="translate(-122.56498432159424,10.986816390991216)" style="fill: rgb(204, 79, 65);"></path></g><g class="path" style="transform: matrix(1, 0, 0, 1, 0, 0); transform-origin: 40.61px 0.516816px; animation: 0.5s linear -0.11s infinite normal forwards running tremble-d7083185-ab4a-459f-b46f-de6463797bc9;"><path d="M156.55-20.15L156.55-20.94L167.33-20.94L167.33-0.79L169.80-0.79L169.80 0L156.73 0L156.73-0.79L159.15-0.79L159.15-20.15L156.55-20.15" fill="#cc4f41" stroke="none" stroke-width="none" transform="translate(-122.56498432159424,10.986816390991216)" style="fill: rgb(204, 79, 65);"></path></g><g class="path" style="transform: matrix(1, 0, 0, 1, 0, 0); transform-origin: 61.42px 0.296817px; animation: 0.5s linear -0.088s infinite normal forwards running tremble-d7083185-ab4a-459f-b46f-de6463797bc9;"><path d="M170.76-20.15L170.76-20.94L181.37-20.94L181.37-16.90L181.37-16.90Q182.07-18.92 183.52-20.15L183.52-20.15L183.52-20.15Q184.98-21.38 187.92-21.38L187.92-21.38L187.92-21.38Q194.74-21.38 194.74-14.04L194.74-14.04L194.74-0.79L197.21-0.79L197.21 0L184.76 0L184.76-0.79L186.56-0.79L186.56-15.09L186.56-15.09Q186.56-17.73 186.21-18.50L186.21-18.50L186.21-18.50Q185.86-19.27 184.93-19.27L184.93-19.27L184.93-19.27Q183.52-19.27 182.45-17.42L182.45-17.42L182.45-17.42Q181.37-15.58 181.37-12.94L181.37-12.94L181.37-0.79L183.26-0.79L183.26 0L170.76 0L170.76-0.79L173.18-0.79L173.18-20.15L170.76-20.15" fill="#cc4f41" stroke="none" stroke-width="none" transform="translate(-122.56498432159424,10.986816390991216)" style="fill: rgb(204, 79, 65);"></path></g><g class="path" style="transform: matrix(1, 0, 0, 1, 0, 0); transform-origin: 80.605px 7.59682px; animation: 0.5s linear -0.066s infinite normal forwards running tremble-d7083185-ab4a-459f-b46f-de6463797bc9;"><path d="M203.13 0.44L203.13 0.44L203.13 0.44Q201.21 0.44 200.27-0.68L200.27-0.68L200.27-0.68Q199.32-1.80 199.32-3.41L199.32-3.41L199.32-3.41Q199.32-5.02 200.31-6.12L200.31-6.12L200.31-6.12Q201.30-7.22 203.10-7.22L203.10-7.22L203.10-7.22Q204.91-7.22 205.96-6.29L205.96-6.29L205.96-6.29Q207.02-5.37 207.02-3.52L207.02-3.52L207.02-3.52Q207.02-1.67 206.03-0.62L206.03-0.62L206.03-0.62Q205.04 0.44 203.13 0.44" fill="#cc4f41" stroke="none" stroke-width="none" transform="translate(-122.56498432159424,10.986816390991216)" style="fill: rgb(204, 79, 65);"></path></g><g class="path" style="transform: matrix(1, 0, 0, 1, 0, 0); transform-origin: 93.455px -17.0832px; animation: 0.5s linear -0.044s infinite normal forwards running tremble-d7083185-ab4a-459f-b46f-de6463797bc9;"><path d="M215.91-23.98L215.91-23.98L215.91-23.98Q213.58-23.98 212.59-25.17L212.59-25.17L212.59-25.17Q211.60-26.36 211.60-28.12L211.60-28.12L211.60-28.12Q211.60-29.88 212.67-31.02L212.67-31.02L212.67-31.02Q213.75-32.16 215.95-32.16L215.95-32.16L215.95-32.16Q218.15-32.16 219.30-31.13L219.30-31.13L219.30-31.13Q220.44-30.10 220.44-28.18L220.44-28.18L220.44-28.18Q220.44-26.27 219.34-25.12L219.34-25.12L219.34-25.12Q218.24-23.98 215.91-23.98" fill="#cc4f41" stroke="none" stroke-width="none" transform="translate(-122.56498432159424,10.986816390991216)" style="fill: rgb(204, 79, 65);"></path></g><g class="path" style="transform: matrix(1, 0, 0, 1, 0, 0); transform-origin: 93.32px 0.516816px; animation: 0.5s linear -0.022s infinite normal forwards running tremble-d7083185-ab4a-459f-b46f-de6463797bc9;"><path d="M209.26-20.15L209.26-20.94L220.04-20.94L220.04-0.79L222.51-0.79L222.51 0L209.44 0L209.44-0.79L211.86-0.79L211.86-20.15L209.26-20.15" fill="#cc4f41" stroke="none" stroke-width="none" transform="translate(-122.56498432159424,10.986816390991216)" style="fill: rgb(204, 79, 65);"></path></g><g class="path" style="transform: matrix(1, 0, 0, 1, 0, 0); transform-origin: 112.33px 0.516817px; animation: 0.5s linear 0s infinite normal forwards running tremble-d7083185-ab4a-459f-b46f-de6463797bc9;"><path d="M237.60-8.67L237.60-8.67L237.60-12.41L237.60-12.41Q237.60-16.68 237.14-18.63L237.14-18.63L237.14-18.63Q236.68-20.59 235.00-20.59L235.00-20.59L235.00-20.59Q234.04-20.59 233.44-20.04L233.44-20.04L233.44-20.04Q232.85-19.49 232.58-18.22L232.58-18.22L232.58-18.22Q232.19-16.24 232.19-12.19L232.19-12.19L232.19-8.76L232.19-8.76Q232.19-3.96 232.47-2.99L232.47-2.99L232.47-2.99Q232.76-2.02 233.07-1.41L233.07-1.41L233.07-1.41Q233.55-0.35 234.96-0.35L234.96-0.35L234.96-0.35Q236.68-0.35 237.20-2.33L237.20-2.33L237.20-2.33Q237.60-3.74 237.60-8.67zM234.87 0.44L234.87 0.44Q229.37 0.44 226.56-2.38L226.56-2.38L226.56-2.38Q223.74-5.19 223.74-10.45L223.74-10.45L223.74-10.45Q223.74-15.71 226.75-18.55L226.75-18.55L226.75-18.55Q229.77-21.38 235.22-21.38L235.22-21.38L235.22-21.38Q240.68-21.38 243.36-18.77L243.36-18.77L243.36-18.77Q246.05-16.15 246.05-10.78L246.05-10.78L246.05-10.78Q246.05 0.44 234.87 0.44L234.87 0.44" fill="#cc4f41" stroke="none" stroke-width="none" transform="translate(-122.56498432159424,10.986816390991216)" style="fill: rgb(204, 79, 65);"></path></g></g>
</g>
</g>
<style id="tremble-d7083185-ab4a-459f-b46f-de6463797bc9" data-anikit="">@keyframes tremble-d7083185-ab4a-459f-b46f-de6463797bc9 {
  0% { transform: translate(0px,0px) rotate(0deg) scale(1) }
  3.33333% { transform: translate(-0.18923px,1.45485px) rotate(0deg) scale(1) }
  6.66667% { transform: translate(-0.84296px,-1.32524px) rotate(0deg) scale(1) }
  10% { transform: translate(0.67971px,1.00422px) rotate(0deg) scale(1) }
  13.33333% { transform: translate(-0.5056px,0.83616px) rotate(0deg) scale(1) }
  16.66667% { transform: translate(1.31368px,-0.51401px) rotate(0deg) scale(1) }
  20% { transform: translate(-1.21184px,1.49193px) rotate(0deg) scale(1) }
  23.33333% { transform: translate(1.09065px,-0.21259px) rotate(0deg) scale(1) }
  26.66667% { transform: translate(-1.49916px,0.56159px) rotate(0deg) scale(1) }
  30% { transform: translate(1.48086px,1.21228px) rotate(0deg) scale(1) }
  33.33333% { transform: translate(-1.43889px,-1.152px) rotate(0deg) scale(1) }
  36.66667% { transform: translate(1.35914px,1.34835px) rotate(0deg) scale(1) }
  40% { transform: translate(-1.42834px,0.3091px) rotate(0deg) scale(1) }
  43.33333% { transform: translate(1.47472px,-1.49889px) rotate(0deg) scale(1) }
  46.66667% { transform: translate(-0.92402px,1.4416px) rotate(0deg) scale(1) }
  50% { transform: translate(1.0657px,-0.75306px) rotate(0deg) scale(1) }
  53.33333% { transform: translate(-1.19035px,-1.07484px) rotate(0deg) scale(1) }
  56.66667% { transform: translate(0.28828px,0.79337px) rotate(0deg) scale(1) }
  60% { transform: translate(-0.47167px,-1.42789px) rotate(0deg) scale(1) }
  63.33333% { transform: translate(0.64753px,-0.09795px) rotate(0deg) scale(1) }
  66.66667% { transform: translate(0.41006px,-0.26292px) rotate(0deg) scale(1) }
  70% { transform: translate(-0.22477px,-1.3683px) rotate(0deg) scale(1) }
  73.33333% { transform: translate(0.03588px,0.92931px) rotate(0deg) scale(1) }
  76.66667% { transform: translate(-1.01937px,-1.18398px) rotate(0deg) scale(1) }
  80% { transform: translate(0.8724px,-0.60494px) rotate(0deg) scale(1) }
  83.33333% { transform: translate(-0.71151px,1.4786px) rotate(0deg) scale(1) }
  86.66667% { transform: translate(1.40734px,-1.49607px) rotate(0deg) scale(1) }
  90% { transform: translate(-1.33062px,0.46957px) rotate(0deg) scale(1) }
  93.33333% { transform: translate(1.23264px,1.26738px) rotate(0deg) scale(1) }
  96.66667% { transform: translate(-1.48975px,-1.03867px) rotate(0deg) scale(1) }
  100% { transform: translate(0,0) rotate(0) scale(1) }
}</style></svg>