<?xml version="1.0" encoding="utf-8"?>
<svg xmlns="http://www.w3.org/2000/svg" style="margin: auto; background: rgb(241, 242, 243); display: block; shape-rendering: auto;" width="280" height="250" preserveAspectRatio="xMidYMid">
<style type="text/css">
  text {
    text-anchor: middle; font-size: 138px; opacity: 0;
  }
</style>
<g style="transform-origin: 140px 125px; transform: scale(1.46809);">
<g transform="translate(140,125)">
  <g transform="translate(0,0)"><g class="path" style="transform: matrix(1, 0, 0, 1, 0, 0); transform-origin: 44.2804px -36.0503px; animation: 0.5s linear -0.275s infinite normal forwards running tremble-3177ad6b-5861-4c6a-b960-3bb23048e959;"><path d="M44.27-57.34L44.27-57.34L44.27-57.34Q44.18-56.21 43.85-54.66L43.85-54.66L43.85-54.66Q43.52-53.11 43.05-51.75L43.05-51.75L43.05-51.75Q42.58-50.38 42.11-49.44L42.11-49.44L42.11-49.44Q41.64-48.50 41.36-48.69L41.36-48.69L41.36-48.69Q41.27-48.69 41.27-49.16L41.27-49.16L41.27-49.16Q41.27-49.63 41.27-50.24L41.27-50.24L41.27-50.24Q41.27-50.85 41.36-51.42L41.36-51.42L41.36-51.42Q41.45-51.98 41.45-52.26L41.45-52.26L41.45-52.26Q41.74-53.77 41.83-55.08L41.83-55.08L41.83-55.08Q41.92-56.40 42.11-57.81L42.11-57.81L42.11-57.81Q42.30-59.60 42.35-61.19L42.35-61.19L42.35-61.19Q42.39-62.79 42.11-64.48L42.11-64.48L42.11-64.48Q42.11-64.67 42.02-64.95L42.02-64.95L42.02-64.95Q41.92-65.24 42.11-65.24L42.11-65.24L42.11-65.24Q42.39-65.24 42.77-64.81L42.77-64.81L42.77-64.81Q43.15-64.39 43.24-64.20L43.24-64.20L43.24-64.20Q43.80-63.07 44.13-61.57L44.13-61.57L44.13-61.57Q44.46-60.07 44.27-57.34" fill="#343f52" stroke="none" stroke-width="none" transform="translate(1.4756898880004883,20.898767007191985)" style="fill: rgb(52, 63, 82);"></path></g><g class="path" style="transform: matrix(1, 0, 0, 1, 0, 0); transform-origin: 37.9751px -11.1034px; animation: 0.5s linear -0.22s infinite normal forwards running tremble-3177ad6b-5861-4c6a-b960-3bb23048e959;"><path d="M45.50-63.92L45.50-63.92L45.50-63.92Q47.09-60.16 47.42-56.45L47.42-56.45L47.42-56.45Q47.75-52.73 47.23-49.02L47.23-49.02L47.23-49.02Q46.72-45.31 45.45-41.64L45.45-41.64L45.45-41.64Q44.18-37.98 42.58-34.50L42.58-34.50L42.58-34.50Q40.42-29.80 38.02-25.29L38.02-25.29L38.02-25.29Q35.63-20.77 33.37-16.45L33.37-16.45L33.37-16.45Q31.11-12.13 29.19-8.04L29.19-8.04L29.19-8.04Q27.26-3.95 26.13 0L26.13 0L26.13 0Q25.94 0.47 25.71 0.38L25.71 0.38L25.71 0.38Q25.47 0.28 25.47 0L25.47 0L25.47 0Q25.29-4.51 26.79-9.07L26.79-9.07L26.79-9.07Q28.29-13.63 30.60-18.24L30.60-18.24L30.60-18.24Q32.90-22.84 35.58-27.50L35.58-27.50L35.58-27.50Q38.26-32.15 40.42-36.94L40.42-36.94L40.42-36.94Q41.83-39.95 42.96-43.24L42.96-43.24L42.96-43.24Q44.09-46.53 44.79-50.01L44.79-50.01L44.79-50.01Q45.50-53.49 45.64-56.92L45.64-56.92L45.64-56.92Q45.78-60.35 45.12-63.64L45.12-63.64L45.12-63.64Q44.93-64.48 45.12-64.39L45.12-64.39L45.12-64.39Q45.21-64.39 45.50-63.92" fill="#343f52" stroke="none" stroke-width="none" transform="translate(1.4756898880004883,20.898767007191985)" style="fill: rgb(89, 93, 122);"></path></g><g class="path" style="transform: matrix(1, 0, 0, 1, 0, 0); transform-origin: 10.8983px -25.6687px; animation: 0.5s linear -0.165s infinite normal forwards running tremble-3177ad6b-5861-4c6a-b960-3bb23048e959;"><path d="M14.95-27.17L14.95-27.17L14.95-27.17Q14.95-26.88 14.90-25.99L14.90-25.99L14.90-25.99Q14.85-25.10 14.57-25.10L14.57-25.10L14.57-25.10Q14.38-25.00 14.10-25.80L14.10-25.80L14.10-25.80Q13.82-26.60 13.63-27.07L13.63-27.07L13.63-27.07Q13.25-28.29 12.78-30.03L12.78-30.03L12.78-30.03Q12.31-31.77 11.89-33.60L11.89-33.60L11.89-33.60Q11.47-35.44 11.14-37.22L11.14-37.22L11.14-37.22Q10.81-39.01 10.72-40.33L10.72-40.33L10.72-40.33Q10.62-40.98 10.34-42.91L10.34-42.91L10.34-42.91Q10.06-44.84 9.59-47.47L9.59-47.47L9.59-47.47Q9.12-50.10 8.51-53.11L8.51-53.11L8.51-53.11Q7.90-56.12 7.19-58.89L7.19-58.89L7.19-58.89Q6.49-61.66 5.73-63.87L5.73-63.87L5.73-63.87Q4.98-66.08 4.23-67.12L4.23-67.12L4.23-67.12Q3.76-67.77 3.95-67.96L3.95-67.96L3.95-67.96Q4.14-68.15 4.42-67.92L4.42-67.92L4.42-67.92Q4.70-67.68 4.89-67.49L4.89-67.49L4.89-67.49Q6.39-66.36 7.75-64.30L7.75-64.30L7.75-64.30Q9.12-62.23 10.25-59.88L10.25-59.88L10.25-59.88Q11.37-57.53 12.13-55.04L12.13-55.04L12.13-55.04Q12.88-52.55 13.16-50.57L13.16-50.57L13.16-50.57Q14.01-45.03 14.38-38.82L14.38-38.82L14.38-38.82Q14.76-32.62 14.95-27.17" fill="#343f52" stroke="none" stroke-width="none" transform="translate(1.4756898880004883,20.898767007191985)" style="fill: rgb(52, 63, 82);"></path></g><g class="path" style="transform: matrix(1, 0, 0, 1, 0, 0); transform-origin: 27.6604px -16.0056px; animation: 0.5s linear -0.11s infinite normal forwards running tremble-3177ad6b-5861-4c6a-b960-3bb23048e959;"><path d="M20.87-13.91L20.87-13.91L20.87-13.91Q18.99-20.21 17.86-26.88L17.86-26.88L17.86-26.88Q16.73-33.56 15.89-40.33L15.89-40.33L15.89-40.33Q15.23-45.31 14.38-50.29L14.38-50.29L14.38-50.29Q13.54-55.27 11.75-60.63L11.75-60.63L11.75-60.63Q11.56-61.10 11.56-61.15L11.56-61.15L11.56-61.15Q11.56-61.19 11.75-61.29L11.75-61.29L11.75-61.29Q11.94-61.29 12.41-60.82L12.41-60.82L12.41-60.82Q14.38-58.84 15.74-54.71L15.74-54.71L15.74-54.71Q17.11-50.57 18.09-45.92L18.09-45.92L18.09-45.92Q19.08-41.27 19.74-36.90L19.74-36.90L19.74-36.90Q20.40-32.52 20.87-29.89L20.87-29.89L20.87-29.89Q21.34-27.73 21.67-25.47L21.67-25.47L21.67-25.47Q22.00-23.22 22.18-20.96L22.18-20.96L22.18-20.96Q22.84-23.50 23.97-26.18L23.97-26.18L23.97-26.18Q25.10-28.86 26.27-31.40L26.27-31.40L26.27-31.40Q27.45-33.93 28.62-36.14L28.62-36.14L28.62-36.14Q29.80-38.35 30.55-39.95L30.55-39.95L30.55-39.95Q32.52-44.18 35.06-48.46L35.06-48.46L35.06-48.46Q37.60-52.73 39.76-55.65L39.76-55.65L39.76-55.65Q40.61-56.78 40.70-56.78L40.70-56.78L40.70-56.78Q40.89-56.59 40.75-56.16L40.75-56.16L40.75-56.16Q40.61-55.74 40.42-55.27L40.42-55.27L40.42-55.27Q38.54-48.50 35.30-42.11L35.30-42.11L35.30-42.11Q32.05-35.72 28.76-29.23L28.76-29.23L28.76-29.23Q26.88-25.66 25.00-22.00L25.00-22.00L25.00-22.00Q23.12-18.33 22.18-13.82L22.18-13.82L22.18-13.82Q22.00-12.78 21.67-12.55L21.67-12.55L21.67-12.55Q21.34-12.31 20.87-13.91" fill="#343f52" stroke="none" stroke-width="none" transform="translate(1.4756898880004883,20.898767007191985)" style="fill: rgb(89, 93, 122);"></path></g><g class="path" style="transform: matrix(1, 0, 0, 1, 0, 0); transform-origin: 13.7588px -13.772px; animation: 0.5s linear -0.055s infinite normal forwards running tremble-3177ad6b-5861-4c6a-b960-3bb23048e959;"><path d="M23.78 0L23.78 0L23.78 0Q24.06 0.19 23.92 0.23L23.92 0.23L23.92 0.23Q23.78 0.28 23.50 0.09L23.50 0.09L23.50 0.09Q19.83-1.60 17.20-4.56L17.20-4.56L17.20-4.56Q14.57-7.52 12.74-11.19L12.74-11.19L12.74-11.19Q10.90-14.85 9.78-18.99L9.78-18.99L9.78-18.99Q8.65-23.12 7.90-27.17L7.90-27.17L7.90-27.17Q6.86-32.81 6.30-38.45L6.30-38.45L6.30-38.45Q5.73-44.09 5.03-49.49L5.03-49.49L5.03-49.49Q4.32-54.90 3.38-59.83L3.38-59.83L3.38-59.83Q2.44-64.77 0.75-68.90L0.75-68.90L0.75-68.90Q0.66-69.09 0.61-69.23L0.61-69.23L0.61-69.23Q0.56-69.37 0.75-69.56L0.75-69.56L0.75-69.56Q0.85-69.65 1.03-69.37L1.03-69.37L1.03-69.37Q1.22-69.09 1.32-68.90L1.32-68.90L1.32-68.90Q4.23-64.95 5.69-59.92L5.69-59.92L5.69-59.92Q7.14-54.90 7.90-49.30L7.90-49.30L7.90-49.30Q8.65-43.71 9.16-37.84L9.16-37.84L9.16-37.84Q9.68-31.96 10.72-26.41L10.72-26.41L10.72-26.41Q11.37-22.84 12.50-19.13L12.50-19.13L12.50-19.13Q13.63-15.42 15.23-11.89L15.23-11.89L15.23-11.89Q16.83-8.37 18.94-5.31L18.94-5.31L18.94-5.31Q21.06-2.26 23.78 0" fill="#343f52" stroke="none" stroke-width="none" transform="translate(1.4756898880004883,20.898767007191985)" style="fill: rgb(52, 63, 82);"></path></g><g class="path" style="transform: matrix(1, 0, 0, 1, 0, 0); transform-origin: 29.1132px -0.0217056px; animation: 0.5s linear 0s infinite normal forwards running tremble-3177ad6b-5861-4c6a-b960-3bb23048e959;"><path d="M23.31-2.35L23.31-2.35L23.31-2.35Q22.75-2.91 21.86-3.85L21.86-3.85L21.86-3.85Q20.96-4.79 20.21-5.83L20.21-5.83L20.21-5.83Q19.65-6.77 18.99-8.32L18.99-8.32L18.99-8.32Q18.33-9.87 17.81-11.37L17.81-11.37L17.81-11.37Q17.30-12.88 17.06-14.05L17.06-14.05L17.06-14.05Q16.83-15.23 17.11-15.32L17.11-15.32L17.11-15.32Q17.20-15.32 17.53-14.90L17.53-14.90L17.53-14.90Q17.86-14.48 18.14-13.91L18.14-13.91L18.14-13.91Q18.42-13.35 18.71-12.83L18.71-12.83L18.71-12.83Q18.99-12.31 19.18-12.13L19.18-12.13L19.18-12.13Q19.93-10.81 20.49-9.73L20.49-9.73L20.49-9.73Q21.06-8.65 21.53-7.43L21.53-7.43L21.53-7.43Q22.09-6.20 22.70-5.31L22.70-5.31L22.70-5.31Q23.31-4.42 23.41-4.51L23.41-4.51L23.41-4.51Q23.50-4.51 23.45-5.03L23.45-5.03L23.45-5.03Q23.41-5.55 23.36-6.20L23.36-6.20L23.36-6.20Q23.31-6.86 23.27-7.47L23.27-7.47L23.27-7.47Q23.22-8.08 23.22-8.37L23.22-8.37L23.22-8.37Q23.03-11.94 23.83-14.76L23.83-14.76L23.83-14.76Q24.63-17.58 25.66-19.93L25.66-19.93L25.66-19.93Q27.82-24.72 30.74-29.52L30.74-29.52L30.74-29.52Q33.65-34.31 36.66-38.54L36.66-38.54L36.66-38.54Q36.85-38.73 37.41-39.39L37.41-39.39L37.41-39.39Q37.98-40.04 38.16-39.95L38.16-39.95L38.16-39.95Q38.45-39.86 38.21-39.06L38.21-39.06L38.21-39.06Q37.98-38.26 37.88-37.98L37.88-37.98L37.88-37.98Q37.51-36.85 36.90-35.34L36.90-35.34L36.90-35.34Q36.28-33.84 35.63-32.20L35.63-32.20L35.63-32.20Q34.97-30.55 34.26-29.05L34.26-29.05L34.26-29.05Q33.56-27.54 32.99-26.51L32.99-26.51L32.99-26.51Q32.71-25.94 31.96-24.35L31.96-24.35L31.96-24.35Q31.21-22.75 30.27-20.45L30.27-20.45L30.27-20.45Q29.33-18.14 28.29-15.51L28.29-15.51L28.29-15.51Q27.26-12.88 26.37-10.39L26.37-10.39L26.37-10.39Q25.47-7.90 24.91-5.83L24.91-5.83L24.91-5.83Q24.35-3.76 24.35-2.54L24.35-2.54L24.35-2.54Q24.35-1.88 24.06-1.88L24.06-1.88L24.06-1.88Q23.78-1.88 23.31-2.35" fill="#343f52" stroke="none" stroke-width="none" transform="translate(1.4756898880004883,20.898767007191985)" style="fill: rgb(89, 93, 122);"></path></g></g>
</g>
</g>
<style id="tremble-3177ad6b-5861-4c6a-b960-3bb23048e959" data-anikit="">@keyframes tremble-3177ad6b-5861-4c6a-b960-3bb23048e959 {
  0% { transform: translate(0px,0px) rotate(0deg) scale(1) }
  3.33333% { transform: translate(-0.18923px,1.45485px) rotate(0deg) scale(1) }
  6.66667% { transform: translate(-0.84296px,-1.32524px) rotate(0deg) scale(1) }
  10% { transform: translate(0.67971px,1.00422px) rotate(0deg) scale(1) }
  13.33333% { transform: translate(-0.5056px,0.83616px) rotate(0deg) scale(1) }
  16.66667% { transform: translate(1.31368px,-0.51401px) rotate(0deg) scale(1) }
  20% { transform: translate(-1.21184px,1.49193px) rotate(0deg) scale(1) }
  23.33333% { transform: translate(1.09065px,-0.21259px) rotate(0deg) scale(1) }
  26.66667% { transform: translate(-1.49916px,0.56159px) rotate(0deg) scale(1) }
  30% { transform: translate(1.48086px,1.21228px) rotate(0deg) scale(1) }
  33.33333% { transform: translate(-1.43889px,-1.152px) rotate(0deg) scale(1) }
  36.66667% { transform: translate(1.35914px,1.34835px) rotate(0deg) scale(1) }
  40% { transform: translate(-1.42834px,0.3091px) rotate(0deg) scale(1) }
  43.33333% { transform: translate(1.47472px,-1.49889px) rotate(0deg) scale(1) }
  46.66667% { transform: translate(-0.92402px,1.4416px) rotate(0deg) scale(1) }
  50% { transform: translate(1.0657px,-0.75306px) rotate(0deg) scale(1) }
  53.33333% { transform: translate(-1.19035px,-1.07484px) rotate(0deg) scale(1) }
  56.66667% { transform: translate(0.28828px,0.79337px) rotate(0deg) scale(1) }
  60% { transform: translate(-0.47167px,-1.42789px) rotate(0deg) scale(1) }
  63.33333% { transform: translate(0.64753px,-0.09795px) rotate(0deg) scale(1) }
  66.66667% { transform: translate(0.41006px,-0.26292px) rotate(0deg) scale(1) }
  70% { transform: translate(-0.22477px,-1.3683px) rotate(0deg) scale(1) }
  73.33333% { transform: translate(0.03588px,0.92931px) rotate(0deg) scale(1) }
  76.66667% { transform: translate(-1.01937px,-1.18398px) rotate(0deg) scale(1) }
  80% { transform: translate(0.8724px,-0.60494px) rotate(0deg) scale(1) }
  83.33333% { transform: translate(-0.71151px,1.4786px) rotate(0deg) scale(1) }
  86.66667% { transform: translate(1.40734px,-1.49607px) rotate(0deg) scale(1) }
  90% { transform: translate(-1.33062px,0.46957px) rotate(0deg) scale(1) }
  93.33333% { transform: translate(1.23264px,1.26738px) rotate(0deg) scale(1) }
  96.66667% { transform: translate(-1.48975px,-1.03867px) rotate(0deg) scale(1) }
  100% { transform: translate(0,0) rotate(0) scale(1) }
}</style></svg>